<svg version="1.1" id="Layer_1" xmlns="http://www.w3.org/2000/svg" x="0" y="0" viewBox="0 0 1500 1500" xml:space="preserve"><style>.st3{fill:#c1272d}.st4{fill:#ff931e}.st5{fill:#ffb81e}.st6{fill:#f7bd89}.st8{fill:#fff}.st17{fill:#4c3a2c}</style><path fill="#00a99d" d="M-1 1h1500v1500H-1z"/><circle cx="519" cy="751" r="274.9" fill="#f2f2f2"/><path d="M602.5 903.4c-54.3 20-113.9 20-168.2 0-5-1.8-9-7.7-9-12.8v-13.1c0-5.1 4-7.6 9-5.8 54.3 20 113.9 20 168.2 0 5-1.8 9 .7 9 5.8v13.1c-.1 5.1-4.1 11-9 12.8z" fill="#ed1c24"/><path class="st3" d="M602.5 887.4c-54.3 27.8-113.9 27.8-168.2 0-5-2.5-9-10.7-9-17.8v-18.1c0-7.1 4-10.6 9-8 54.3 27.8 113.9 27.8 168.2 0 5-2.5 9 .9 9 8v18.1c-.1 7.1-4.1 15.3-9 17.8z"/><circle class="st3" cx="518.4" cy="910.2" r="7.7"/><circle class="st4" cx="518.4" cy="909.1" r="6.6"/><circle class="st5" cx="520.3" cy="911.4" r="2.3"/><path class="st6" d="M685.3 767.6c5 68.5-69.1 130-165.9 129.9-96.7.1-170.9-61.4-165.9-129.9 5-68.7 79.5-125.4 166.1-125.5 86.7.1 160.6 56.8 165.7 125.5z"/><path d="M519.3 632.5c-91 0-175.5 64.1-159.5 161.7 3.2 9 8.5 32.4 33.8 53.1 7.6 6.2 20.7 11.4 26.9 7.2 15.9-10.8-12.3-41.8 19.9-70.4h-.7c17.5-13.3 42.3-23.9 79.4-23.9 37.1 0 61.9 10.6 79.4 23.9h-.7c32.2 28.6 4.1 59.6 19.9 70.4 6.2 4.2 19.4-1 26.9-7.2 25.3-20.7 30.7-44.1 33.9-53.1 16-97.7-68.2-161.7-159.2-161.7z" fill="#fbd5a0"/><path class="st17" d="M597.6 794.8c-15.3-18.8-44.3-36.8-78-36.8h-.4c-33.8 0-62.8 18-78 36.8-15.8 19.2-10.1 27.3-10.1 45.7 0 66.6 23.3 47.4 39 55.4 16 7.8 32.2 5.1 49.2 5.1h.3c17 0 33.2 2.6 49.2-5.2 15.6-8 39 11.6 39-55-.1-18.4 5.6-26.8-10.2-46z"/><circle class="st6" cx="406.8" cy="765" r="27.9"/><circle class="st6" cx="414" cy="752.6" r="7.2"/><circle class="st6" cx="630.8" cy="765" r="27.9"/><circle class="st6" cx="638" cy="752.6" r="7.2"/><path class="st6" d="M460.4 657.5s-94.5 16.3-98.3 129.2c-.1 1.7-1.9 2.8-3.4 1.9l-3-1.8-2.3-29.6 4.3-60.4 39.4-29.1 35.4-14.3 27.9 4.1zm117.3 0s94.5 16.3 98.3 129.2c.1 1.7 1.9 2.8 3.4 1.9l3-1.8 2.3-29.6-4.3-60.4-39.4-29.1-35.4-14.3-27.9 4.1z"/><path class="st17" d="M460.5 657.5s-111.3 15.4-101.7 125.9c.5 5.6-22.2-23.9-39.8-32.9-17.6-9-17-38.1-17-38.1s-.3-50.7 70.8-65.7c71.1-14.9 87.7 10.8 87.7 10.8zm117.4 0s111.3 15.4 101.7 125.9c-.5 5.6 22.2-23.9 39.8-32.9 17.6-9 17-38.1 17-38.1s.3-50.7-70.8-65.7c-71-14.9-87.7 10.8-87.7 10.8z"/><path class="st6" d="M519.4 737.1c-34.6 0-69.6 34-62.3 30.2 13.5-7.1 21.3-19.6 62.3-19.6s48.7 12.5 62.3 19.6c7.3 3.8-27.7-30.2-62.3-30.2z"/><path class="st6" d="M519.4 722.2c-26.3 0-52.8 25.8-47.3 22.9 10.3-5.4 23.5-14.9 47.3-14.9s37 9.5 47.3 14.9c5.5 3-21-22.9-47.3-22.9zm-.2-83.7c-29 0-58.4 16.6-52.3 14.7 11.4-3.5 26-9.6 52.3-9.6 26.3 0 40.9 6.1 52.3 9.6 6.1 1.9-23.3-14.7-52.3-14.7z"/><circle class="st4" cx="518.4" cy="935.3" r="20.6"/><circle class="st5" cx="518.4" cy="935.4" r="18.5"/><path class="st4" d="M523.8 929.5c1.1 1 1.7 2.4 1.7 4.4s-.6 3.4-1.7 4.4c-1.2.9-2.9 1.4-5.3 1.4h-2.1v4.5h-3.6v-16.1h5.7c2.4 0 4.2.5 5.3 1.4zm-2.6 6.3c.4-.5.6-1.2.6-2.1 0-.9-.3-1.6-.8-2-.6-.4-1.4-.6-2.6-.6h-2v5.4h2.4c1.2.1 2-.2 2.4-.7z"/><path class="st6" d="M401.4 733.3s22.6-4.3 29-5.9c5.1-1.3 12.9-10.1 14.5-2.4 1 4.6.6 35.8-11.8 50.5-11.9 14-45.2-33.1-45.2-33.1l13.5-9.1zm236.4 0s-22.6-4.3-29-5.9c-5.1-1.3-12.9-10.1-14.5-2.4-1 4.6-.6 35.8 11.8 50.5 11.9 14 45.2-33.1 45.2-33.1l-13.5-9.1z"/><circle class="st8" cx="409.4" cy="760.3" r="27.9"/><circle cx="408.2" cy="758.2" r="23.5"/><circle class="st8" cx="405.5" cy="750.1" r="7.2"/><circle class="st8" cx="629.3" cy="760.3" r="27.9"/><circle cx="631.3" cy="758.2" r="23.5"/><circle class="st8" cx="633.6" cy="750.1" r="7.2"/><path d="M576.7 869.3c.5 0-35.4-3.4-56.9-3.3-21.3 0-57.7 3.6-57.8 3.3 0 0 41.5-5.4 48.9-14.7 7.4-9.4 6-51.7 6-51.7 0-7.8-6.4-14.2-14.2-14.2-1.5 0-3 .3-4.4.7.1-.5.2-.9.4-1.3 2.6-6.1 12-8 21.3-8.2 9.3.1 18.7 2.1 21.3 8.2.2.5.3 1 .4 1.5-1.5-.5-3.1-.9-4.8-.9-7.8 0-14.2 6.4-14.2 14.2 0 0-1.5 44.2 5.3 51.6s48.7 14.8 48.7 14.8z" fill="#261d16"/><path class="st8" d="M901.5 678.5h42.9v1.4c3-1.3 6.1-2.4 9.3-3.2 3.2-.8 6.4-1.2 9.8-1.2 7.2 0 13.9 1.4 20.1 4.1 6.2 2.7 11.6 6.4 16.1 11.1 4.6 4.7 8.1 10.2 10.7 16.4s3.8 12.9 3.8 19.9c0 7.1-1.2 13.8-3.7 20-2.5 6.3-6 11.7-10.5 16.4-4.5 4.7-9.9 8.3-16.1 11-6.2 2.7-13 4-20.4 4-4.2 0-8.1-.4-11.7-1.2-3.6-.8-7.1-1.9-10.4-3.4v21.5h18.8v26H896v-26h16.1v-91h-10.6v-25.8zm59.9 23.2c-4 0-7.7 1-11.2 3.1-3.5 2.1-6.4 5-8.8 8.8v27.7c2 3.2 4.8 5.9 8.3 7.9 3.5 2 7.4 3 11.8 3 3.2 0 6.3-.6 9.2-1.9 2.9-1.2 5.4-3 7.6-5.2 2.1-2.2 3.9-4.9 5.1-8 1.3-3.1 1.9-6.4 1.9-10 0-4-.6-7.6-1.9-10.7-1.2-3.2-2.9-5.8-5.1-8-2.2-2.2-4.7-3.9-7.6-5-2.9-1.1-6-1.7-9.3-1.7zm122.9-23.2h46.5v72.3h11.9v26H1101v-8.4c-3.4 3-7.3 5.4-11.8 7-4.5 1.6-9.7 2.5-15.6 2.5-5.4 0-10.6-.9-15.4-2.6-4.8-1.7-9-4.3-12.6-7.7-3.6-3.4-6.4-7.8-8.4-13-2.1-5.2-3.1-11.3-3.1-18.3v-31.9h-12.8v-26h43.5v57.9c0 6.6 1.7 11.5 5 14.8 3.4 3.3 7.7 4.9 13.1 4.9 3.8 0 7.2-1.2 10.3-3.5 3.1-2.3 5.3-5.5 6.7-9.5v-38.5h-15.8v-26zm140.8 93.2c-3.5 2-7.1 3.5-10.6 4.4-3.5.9-7.2 1.3-10.8 1.3-7.6 0-14.6-1.3-21-3.9-6.4-2.6-11.9-6.2-16.6-10.8-4.6-4.6-8.3-10-10.9-16.3-2.6-6.3-3.9-13.1-3.9-20.4 0-6.9 1.2-13.4 3.7-19.5s6-11.4 10.5-16 9.9-8.2 16.1-10.9c6.3-2.7 13.1-4 20.4-4.1 4.5.1 8.6.5 12.4 1.4 3.8.9 7.3 2.1 10.6 3.6v-2.1h28.8v94.2c0 8.3-1.4 15.5-4.3 21.5-2.8 6-6.7 11-11.4 15-4.8 4-10.3 6.9-16.7 8.8-6.3 1.9-13 2.9-19.9 2.9-8.6 0-16.6-1.2-23.9-3.5-7.3-2.3-13.8-5.5-19.5-9.5l11.9-21.1c4.4 2.8 9.1 5 14.2 6.6 5.1 1.6 10.8 2.4 17.1 2.4 3.4 0 6.6-.4 9.4-1.1 2.9-.8 5.4-2 7.5-3.8 2.1-1.8 3.8-4.2 5-7.3 1.2-3 1.8-6.9 1.8-11.5v-.3zm-20.5-20.6c4.4 0 8.4-1.1 12-3.4 3.6-2.2 6.4-5.2 8.5-8.9l.2-23.9c-2.2-4-5.1-7.1-8.8-9.5-3.7-2.3-7.8-3.5-12.1-3.6-3.1.1-6.1.7-9.1 1.9s-5.6 2.8-7.7 5c-2.2 2.2-3.9 4.7-5.2 7.6-1.3 2.9-1.9 6.2-1.9 9.8 0 3.8.6 7.2 1.9 10.3 1.3 3.1 3 5.7 5.1 7.9 2.1 2.2 4.7 3.8 7.6 5 2.9 1.2 6.1 1.8 9.5 1.8z"/></svg>