<svg version="1.1" id="Layer_1" xmlns="http://www.w3.org/2000/svg" x="0" y="0" viewBox="0 0 1006.5 549.7" xml:space="preserve"><style>.st8{fill:#fff}</style><circle class="st8" cx="274.9" cy="274.9" r="274.9"/><path d="M364.6 414.1c-58.9 21.7-123.6 21.7-182.5 0-.6-.2-.9-.5-1.9-.9v11.5c0 5.1 4.1 11 9.1 12.8 54.3 20 113.8 20 168.1 0 5-1.8 8.8-7.7 8.8-12.8v-11.5c.1.4-1 .7-1.6.9z"/><circle class="st8" cx="273.6" cy="444.4" r="7.7"/><path d="M352.6 328.3c-15.3-18.8-44.3-37.5-78-37.5h-.4c-33.8 0-62.8 18.7-78 37.5-15.8 19.2-10.1 27.6-10.1 46 0 66.6 23.3 46.9 39 54.9 16 7.8 32.2 4.6 49.2 4.6h.3c17 0 33.2 3.3 49.2-4.6 15.6-8 39 11.6 39-55-.1-18.3 5.6-26.7-10.2-45.9z"/><circle cx="164.5" cy="294.5" r="27.9"/><circle class="st8" cx="171.6" cy="282" r="7.2"/><circle cx="384.4" cy="294.5" r="27.9"/><circle class="st8" cx="391.5" cy="282" r="7.2"/><path class="st8" d="M272.4 335.8h4.2v59.8h-4.2z"/><path d="M215.6 191.7s-111.3 15.4-101.7 125.9c.5 5.6-22.2-23.9-39.8-32.9s-17-38.1-17-38.1-.3-50.7 70.8-65.7c71-14.9 87.7 10.8 87.7 10.8zm117.3 0s111.3 15.4 101.7 125.9c-.5 5.6 22.2-23.9 39.8-32.9s17-38.1 17-38.1.3-50.7-70.8-65.7c-71-14.9-87.7 10.8-87.7 10.8z"/><path class="st8" d="M274.9 392.5c-6.4.2-15 4.2-23.3 6.7-7.9 2.7-15.5 3.8-12.5 4.3 10.3.4 21.7-3.5 35.8-3.3 14-.2 25.4 3.7 35.8 3.3 3-.4-4.6-1.5-12.5-4.3-8.3-2.5-17-6.5-23.3-6.7zm25.6-75.9c3.3 7.3-8.1 19.2-26.2 19.2s-29.5-11.9-26.2-19.2c3.2-7.5 14.7-9.9 26.2-10 11.5.1 23 2.5 26.2 10z"/><circle cx="273.6" cy="469.4" r="20.6"/><circle cx="273.6" cy="469.6" r="18.5"/><path class="st8" d="M279 463.7c1.1 1 1.7 2.4 1.7 4.4 0 2-.6 3.4-1.7 4.4-1.2.9-2.9 1.4-5.3 1.4h-2.1v4.5H268v-16.1h5.7c2.4 0 4.2.4 5.3 1.4zm-2.6 6.3c.4-.5.6-1.2.6-2.1 0-.9-.3-1.6-.8-2-.6-.4-1.4-.6-2.6-.6h-2v5.4h2.4c1.2 0 2-.2 2.4-.7z"/><path d="M654.2 204.8h42.9v1.4c3-1.3 6.1-2.4 9.3-3.2 3.2-.8 6.4-1.2 9.8-1.2 7.2 0 13.9 1.4 20.1 4.1 6.2 2.7 11.6 6.4 16.1 11.1 4.6 4.7 8.1 10.2 10.7 16.4 2.6 6.3 3.8 12.9 3.8 19.9 0 7.1-1.2 13.8-3.7 20-2.5 6.3-6 11.7-10.5 16.4-4.5 4.7-9.9 8.3-16.1 11-6.2 2.7-13 4-20.4 4-4.2 0-8.1-.4-11.7-1.2-3.6-.8-7.1-1.9-10.4-3.4v21.5h18.8v26h-64.1v-26h16.1v-91h-10.6v-25.8zm59.9 23.3c-4 0-7.7 1-11.2 3.1-3.5 2.1-6.4 5-8.8 8.8v27.7c2 3.2 4.8 5.9 8.3 7.9 3.5 2 7.4 3 11.8 3 3.2 0 6.3-.6 9.2-1.9 2.9-1.2 5.4-3 7.6-5.2 2.1-2.2 3.9-4.9 5.1-8 1.3-3.1 1.9-6.4 1.9-10 0-4-.6-7.6-1.9-10.7-1.2-3.2-2.9-5.8-5.1-8-2.2-2.2-4.7-3.9-7.6-5-2.9-1.1-6-1.7-9.3-1.7zM837 204.8h46.5v72.3h11.9v26h-41.7v-8.4c-3.4 3-7.3 5.4-11.8 7-4.5 1.6-9.7 2.5-15.6 2.5-5.4 0-10.6-.9-15.4-2.6-4.8-1.7-9-4.3-12.6-7.7-3.6-3.4-6.4-7.8-8.4-13-2.1-5.2-3.1-11.3-3.1-18.3v-31.9H774v-26h43.5v57.9c0 6.6 1.7 11.5 5 14.8 3.4 3.3 7.7 4.9 13.1 4.9 3.8 0 7.2-1.2 10.3-3.5 3.1-2.3 5.3-5.5 6.7-9.5v-38.5H837v-26zM977.8 298c-3.5 2-7.1 3.5-10.6 4.4-3.5.9-7.2 1.3-10.8 1.3-7.6 0-14.6-1.3-21-3.9-6.4-2.6-11.9-6.2-16.6-10.8-4.6-4.6-8.3-10-10.9-16.3-2.6-6.3-3.9-13.1-3.9-20.4 0-6.9 1.2-13.4 3.7-19.5s6-11.4 10.5-16 9.9-8.2 16.1-10.9c6.3-2.7 13.1-4 20.4-4.1 4.5.1 8.6.5 12.4 1.4 3.8.9 7.3 2.1 10.6 3.6v-2.1h28.8V299c0 8.3-1.4 15.5-4.3 21.5-2.8 6-6.7 11-11.4 15-4.8 4-10.3 6.9-16.7 8.8-6.3 1.9-13 2.9-19.9 2.9-8.6 0-16.6-1.2-23.9-3.5-7.3-2.3-13.8-5.5-19.5-9.5l11.9-21.1c4.4 2.8 9.1 5 14.2 6.6 5.1 1.6 10.8 2.4 17.1 2.4 3.4 0 6.6-.4 9.4-1.1 2.9-.8 5.4-2 7.5-3.8 2.1-1.8 3.8-4.2 5-7.3 1.2-3 1.8-6.9 1.8-11.5v-.4zm-20.5-20.6c4.4 0 8.4-1.1 12-3.4 3.6-2.2 6.4-5.2 8.5-8.9l.2-23.9c-2.2-4-5.1-7.1-8.8-9.5-3.7-2.3-7.8-3.5-12.1-3.6-3.1.1-6.1.7-9.1 1.9s-5.6 2.8-7.7 5c-2.2 2.2-3.9 4.7-5.2 7.6-1.3 2.9-1.9 6.2-1.9 9.8 0 3.8.6 7.2 1.9 10.3 1.3 3.1 3 5.7 5.1 7.9 2.1 2.2 4.7 3.8 7.6 5 2.9 1.2 6.1 1.8 9.5 1.8z"/></svg>