<svg version="1.1" id="Layer_1" xmlns="http://www.w3.org/2000/svg" x="0" y="0" viewBox="0 0 550 550" xml:space="preserve"><style>.st3{fill:#c1272d}.st4{fill:#ff931e}.st5{fill:#ffb81e}.st6{fill:#f7bd89}.st8{fill:#fff}.st17{fill:#4c3a2c}</style><circle cx="272.2" cy="276" r="274.9" fill="#f2f2f2"/><path d="M355.6 428.4c-54.3 20-113.9 20-168.2 0-5-1.8-9-7.7-9-12.8v-13.1c0-5.1 4-7.6 9-5.8 54.3 20 113.9 20 168.2 0 5-1.8 9 .7 9 5.8v13.1c0 5.1-4 11-9 12.8z" fill="#ed1c24"/><path class="st3" d="M355.6 412.4c-54.3 27.8-113.9 27.8-168.2 0-5-2.5-9-10.7-9-17.8v-18.1c0-7.1 4-10.6 9-8 54.3 27.8 113.9 27.8 168.2 0 5-2.5 9 .9 9 8v18.1c0 7.1-4 15.3-9 17.8z"/><circle class="st3" cx="271.5" cy="435.2" r="7.7"/><circle class="st4" cx="271.5" cy="434.1" r="6.6"/><circle class="st5" cx="273.5" cy="436.4" r="2.3"/><path class="st6" d="M438.4 292.6c5 68.5-69.1 130-165.9 129.9-96.7.1-170.9-61.4-165.9-129.9 5-68.7 79.5-125.4 166.1-125.5 86.7.1 160.7 56.8 165.7 125.5z"/><path d="M272.4 157.5c-91 0-175.5 64.1-159.5 161.7 3.2 9 8.5 32.4 33.8 53.1 7.6 6.2 20.7 11.4 26.9 7.2 15.9-10.8-12.3-41.8 19.9-70.4h-.7c17.5-13.3 42.3-23.9 79.4-23.9 37.1 0 61.9 10.6 79.4 23.9h-.7c32.2 28.6 4.1 59.6 19.9 70.4 6.2 4.2 19.4-1 26.9-7.2 25.3-20.7 30.7-44.1 33.9-53.1 16-97.7-68.2-161.7-159.2-161.7z" fill="#fbd5a0"/><path class="st17" d="M350.7 319.8c-15.3-18.8-44.3-36.8-78-36.8h-.4c-33.8 0-62.8 18-78 36.8-15.8 19.2-10.1 27.3-10.1 45.7 0 66.6 23.3 47.4 39 55.4 16 7.8 32.2 5.1 49.2 5.1h.3c17 0 33.2 2.6 49.2-5.2 15.6-8 39 11.6 39-55 0-18.4 5.6-26.8-10.2-46z"/><circle class="st6" cx="160" cy="290" r="27.9"/><circle class="st6" cx="167.1" cy="277.6" r="7.2"/><circle class="st6" cx="384" cy="290" r="27.9"/><circle class="st6" cx="391.1" cy="277.6" r="7.2"/><path class="st6" d="M213.5 182.5s-94.5 16.3-98.3 129.2c-.1 1.7-1.9 2.8-3.4 1.9l-3-1.8-2.3-29.6 4.3-60.4 39.4-29.1 35.4-14.3 27.9 4.1zm117.4 0s94.5 16.3 98.3 129.2c.1 1.7 1.9 2.8 3.4 1.9l3-1.8 2.3-29.6-4.3-60.4-39.4-29.1-35.4-14.3-27.9 4.1z"/><path class="st17" d="M213.7 182.5S102.4 197.9 112 308.4c.5 5.6-22.2-23.9-39.8-32.9s-17-38.1-17-38.1-.3-50.7 70.8-65.7c71-14.9 87.7 10.8 87.7 10.8zm117.4 0s111.3 15.4 101.7 125.9c-.5 5.6 22.2-23.9 39.8-32.9 17.6-9 17-38.1 17-38.1s.3-50.7-70.8-65.7c-71.1-14.9-87.7 10.8-87.7 10.8z"/><path class="st6" d="M272.5 262.1c-34.6 0-69.6 34-62.3 30.2 13.5-7.1 21.3-19.6 62.3-19.6s48.7 12.5 62.3 19.6c7.3 3.8-27.7-30.2-62.3-30.2z"/><path class="st6" d="M272.5 247.2c-26.3 0-52.8 25.8-47.3 22.9 10.3-5.4 23.5-14.9 47.3-14.9s37 9.5 47.3 14.9c5.6 3-21-22.9-47.3-22.9zm-.1-83.7c-29 0-58.4 16.6-52.3 14.7 11.4-3.5 26-9.6 52.3-9.6s40.9 6.1 52.3 9.6c6 1.9-23.3-14.7-52.3-14.7z"/><circle class="st4" cx="271.5" cy="460.3" r="20.6"/><circle class="st5" cx="271.5" cy="460.4" r="18.5"/><path class="st4" d="M277 454.5c1.1 1 1.7 2.4 1.7 4.4s-.6 3.4-1.7 4.4c-1.2.9-2.9 1.4-5.3 1.4h-2.1v4.5H266v-16.1h5.7c2.4 0 4.2.5 5.3 1.4zm-2.6 6.3c.4-.5.6-1.2.6-2.1 0-.9-.3-1.6-.8-2s-1.4-.6-2.6-.6h-2v5.4h2.4c1.1.1 1.9-.2 2.4-.7z"/><path class="st6" d="M154.6 258.3s22.6-4.3 29-5.9c5.1-1.3 12.9-10.1 14.5-2.4 1 4.6.6 35.8-11.8 50.5-11.9 14-45.2-33.1-45.2-33.1l13.5-9.1zm236.3 0s-22.6-4.3-29-5.9c-5.1-1.3-12.9-10.1-14.5-2.4-1 4.6-.6 35.8 11.8 50.5 11.9 14 45.2-33.1 45.2-33.1l-13.5-9.1z"/><circle class="st8" cx="162.5" cy="285.3" r="27.9"/><circle cx="161.4" cy="283.2" r="23.5"/><circle class="st8" cx="158.7" cy="275.1" r="7.2"/><circle class="st8" cx="382.4" cy="285.3" r="27.9"/><circle cx="384.4" cy="283.2" r="23.5"/><circle class="st8" cx="386.7" cy="275.1" r="7.2"/><path d="M329.9 394.3c.5 0-35.4-3.4-56.9-3.3-21.3 0-57.7 3.6-57.8 3.3 0 0 41.5-5.4 48.9-14.7s6-51.7 6-51.7c0-7.8-6.4-14.2-14.2-14.2-1.5 0-3 .3-4.4.7.1-.5.2-.9.4-1.3 2.6-6.1 12-8 21.3-8.2 9.3.1 18.7 2.1 21.3 8.2.2.5.3 1 .4 1.5-1.5-.5-3.1-.9-4.8-.9-7.8 0-14.2 6.4-14.2 14.2 0 0-1.5 44.2 5.3 51.6 6.6 7.4 48.7 14.8 48.7 14.8z" fill="#261d16"/></svg>