<svg version="1.1" id="Layer_1" xmlns="http://www.w3.org/2000/svg" x="0" y="0" viewBox="0 0 550 550" xml:space="preserve"><style>.st8{fill:#fff}</style><circle class="st8" cx="275.7" cy="273.7" r="274.9"/><path d="M365.4 413c-58.9 21.7-123.6 21.7-182.5 0-.6-.2-.9-.5-1.9-.9v11.5c0 5.1 4.2 11 9.1 12.8 54.3 20 113.8 20 168.1 0 5-1.8 8.8-7.7 8.8-12.8v-11.5c0 .3-1 .6-1.6.9z"/><circle class="st8" cx="274.4" cy="443.2" r="7.7"/><path d="M353.4 327.3c-15.3-18.8-44.3-37.3-78-37.3h-.4c-33.8 0-62.8 18.5-78 37.3-15.8 19.2-10.1 27.6-10.1 45.9 0 66.6 23.3 47 39 55 16 7.8 32.2 4.8 49.2 4.8h.3c17 0 33.2 3.1 49.2-4.7 15.6-8 39 11.6 39-55-.1-18.4 5.6-26.8-10.2-46z"/><circle cx="165.3" cy="293.3" r="27.9"/><circle class="st8" cx="172.4" cy="280.8" r="7.2"/><circle cx="385.2" cy="293.3" r="27.9"/><circle class="st8" cx="392.4" cy="280.8" r="7.2"/><path class="st8" d="M273.2 334.6h4.2v59.8h-4.2z"/><path d="M216.4 190.5s-111.3 15.4-101.7 125.9c.5 5.6-22.2-23.9-39.8-32.9s-17-38.1-17-38.1-.3-50.7 70.8-65.7c71-14.9 87.7 10.8 87.7 10.8zm117.3 0S445 205.9 435.4 316.4c-.5 5.6 22.2-23.9 39.8-32.9 17.6-9 17-38.1 17-38.1s.3-50.7-70.8-65.7c-71-14.9-87.7 10.8-87.7 10.8z"/><path class="st8" d="M275.7 391.3c-6.4.2-15 4.2-23.3 6.7-7.9 2.7-15.5 3.8-12.5 4.3 10.3.4 21.7-3.5 35.8-3.3 14-.2 25.4 3.7 35.8 3.3 3-.4-4.6-1.5-12.5-4.3-8.3-2.5-17-6.5-23.3-6.7zm25.6-75.9c3.3 7.3-8.1 19.2-26.2 19.2s-29.5-11.9-26.2-19.2c3.2-7.5 14.7-9.9 26.2-10 11.5.1 23 2.5 26.2 10z"/><circle cx="274.4" cy="468.3" r="20.6"/><circle cx="274.4" cy="468.4" r="18.5"/><path class="st8" d="M279.8 462.5c1.1 1 1.7 2.4 1.7 4.4s-.6 3.4-1.7 4.4c-1.2.9-2.9 1.4-5.3 1.4h-2.1v4.5h-3.6v-16.1h5.7c2.4 0 4.2.5 5.3 1.4zm-2.6 6.3c.4-.5.6-1.2.6-2.1 0-.9-.3-1.6-.8-2s-1.4-.6-2.6-.6h-2v5.4h2.4c1.2.1 2-.2 2.4-.7z"/></svg>