<svg version="1.1" id="Layer_1" xmlns="http://www.w3.org/2000/svg" x="0" y="0" viewBox="0 0 1500 1500" xml:space="preserve"><style>.st3{fill:#c1272d}.st4{fill:#ff931e}.st5{fill:#ffb81e}.st6{fill:#f7bd89}.st8{fill:#fff}.st17{fill:#4c3a2c}</style><path fill="#00a99d" d="M.9 0h1500v1500H.9z"/><circle cx="750.9" cy="595.5" r="274.9" fill="#f2f2f2"/><path d="M834.3 747.9c-54.3 20-113.9 20-168.2 0-5-1.8-9-7.7-9-12.8V722c0-5.1 4-7.6 9-5.8 54.3 20 113.9 20 168.2 0 5-1.8 9 .7 9 5.8v13.1c0 5.1-4 11-9 12.8z" fill="#ed1c24"/><path class="st3" d="M834.3 731.9c-54.3 27.8-113.9 27.8-168.2 0-5-2.5-9-10.7-9-17.8V696c0-7.1 4-10.6 9-8 54.3 27.8 113.9 27.8 168.2 0 5-2.5 9 .9 9 8v18.1c0 7.1-4 15.3-9 17.8z"/><circle class="st3" cx="750.2" cy="754.7" r="7.7"/><circle class="st4" cx="750.2" cy="753.6" r="6.6"/><circle class="st5" cx="752.2" cy="755.9" r="2.3"/><path class="st6" d="M917.1 612.1c5 68.5-69.1 130-165.9 129.9-96.7.1-170.9-61.4-165.9-129.9 5-68.7 79.5-125.4 166.1-125.5 86.7.1 160.7 56.8 165.7 125.5z"/><path d="M751.4 477c-91 0-175.5 64.1-159.5 161.7 3.2 9 8.5 32.4 33.8 53.1 7.6 6.2 20.7 11.4 26.9 7.2 15.9-10.8-12.3-41.8 19.9-70.4h-.7c17.5-13.3 42.3-23.9 79.4-23.9 37.1 0 61.9 10.6 79.4 23.9h-.7c32.2 28.6 4.1 59.6 19.9 70.4 6.2 4.2 19.4-1 26.9-7.2 25.3-20.7 30.7-44.1 33.9-53.1C926.6 541 842.4 477 751.4 477z" fill="#fbd5a0"/><path class="st17" d="M829.7 639.6c-15.3-18.8-44.3-36.6-78-36.6h-.4c-33.8 0-62.8 17.7-78 36.6-15.8 19.2-10.1 27.2-10.1 45.6 0 66.6 23.3 47.5 39 55.6 16 7.8 32.2 5.3 49.2 5.3h.3c17 0 33.2 2.4 49.2-5.5 15.6-8 39 11.6 39-55 0-18.5 5.6-26.9-10.2-46z"/><circle class="st6" cx="638.7" cy="609.5" r="27.9"/><circle class="st6" cx="645.9" cy="597.1" r="7.2"/><circle class="st6" cx="862.7" cy="609.5" r="27.9"/><circle class="st6" cx="869.9" cy="597.1" r="7.2"/><path class="st6" d="M692.2 502s-94.5 16.3-98.3 129.2c-.1 1.7-1.9 2.8-3.4 1.9l-3-1.8-2.3-29.6 4.3-60.4 39.4-29.1 35.4-14.3 27.9 4.1zm117.4 0s94.5 16.3 98.3 129.2c.1 1.7 1.9 2.8 3.4 1.9l3-1.8 2.3-29.6-4.3-60.4-39.4-29.1-35.4-14.3-27.9 4.1z"/><path class="st17" d="M692.7 502S581.4 517.4 591 627.9c.5 5.6-22.2-23.9-39.8-32.9-17.6-9-17-38.1-17-38.1s-.3-50.7 70.8-65.7c71-14.9 87.7 10.8 87.7 10.8zm117.4 0s111.3 15.4 101.7 125.9c-.5 5.6 22.2-23.9 39.8-32.9 17.6-9 17-38.1 17-38.1s.3-50.7-70.8-65.7c-71.1-14.9-87.7 10.8-87.7 10.8z"/><path class="st6" d="M751.5 581.6c-34.6 0-69.6 34-62.3 30.2 13.5-7.1 21.3-19.6 62.3-19.6s48.7 12.5 62.3 19.6c7.3 3.8-27.7-30.2-62.3-30.2z"/><path class="st6" d="M751.5 566.7c-26.3 0-52.8 25.8-47.3 22.9 10.3-5.4 23.5-14.9 47.3-14.9 23.8 0 37 9.5 47.3 14.9 5.6 3-21-22.9-47.3-22.9zm-.1-83.7c-29 0-58.4 16.6-52.3 14.7 11.4-3.5 26-9.6 52.3-9.6 26.3 0 40.9 6.1 52.3 9.6 6 1.9-23.3-14.7-52.3-14.7z"/><circle class="st4" cx="750.2" cy="779.8" r="20.6"/><circle class="st5" cx="750.2" cy="779.9" r="18.5"/><path class="st4" d="M755.7 774c1.1 1 1.7 2.4 1.7 4.4s-.6 3.4-1.7 4.4c-1.2.9-2.9 1.4-5.3 1.4h-2.1v4.5h-3.6v-16.1h5.7c2.4 0 4.2.5 5.3 1.4zm-2.6 6.3c.4-.5.6-1.2.6-2.1 0-.9-.3-1.6-.8-2-.6-.4-1.4-.6-2.6-.6h-2v5.4h2.4c1.1.1 1.9-.2 2.4-.7z"/><path class="st6" d="M633.6 577.8s22.6-4.3 29-5.9c5.1-1.3 12.9-10.1 14.5-2.4 1 4.6.6 35.8-11.8 50.5-11.9 14-45.2-33.1-45.2-33.1l13.5-9.1zm236.3 0s-22.6-4.3-29-5.9c-5.1-1.3-12.9-10.1-14.5-2.4-1 4.6-.6 35.8 11.8 50.5 11.9 14 45.2-33.1 45.2-33.1l-13.5-9.1z"/><circle class="st8" cx="641.2" cy="604.8" r="27.9"/><circle cx="640.1" cy="602.7" r="23.5"/><circle class="st8" cx="637.4" cy="594.6" r="7.2"/><circle class="st8" cx="861.1" cy="604.8" r="27.9"/><circle cx="863.1" cy="602.7" r="23.5"/><circle class="st8" cx="865.4" cy="594.6" r="7.2"/><path d="M808.9 713.8c.5 0-35.4-3.4-56.9-3.3-21.3 0-57.7 3.6-57.8 3.3 0 0 41.5-5.4 48.9-14.7s6-51.7 6-51.7c0-7.8-6.4-14.2-14.2-14.2-1.5 0-3 .3-4.4.7.1-.5.2-.9.4-1.3 2.6-6.1 12-8 21.3-8.2 9.3.1 18.7 2.1 21.3 8.2.2.5.3 1 .4 1.5-1.5-.5-3.1-.9-4.8-.9-7.8 0-14.2 6.4-14.2 14.2 0 0-1.5 44.2 5.3 51.6 6.6 7.4 48.7 14.8 48.7 14.8z" fill="#261d16"/><path class="st8" d="M577.5 973.5h42.9v1.4c3-1.3 6.1-2.4 9.3-3.2 3.2-.8 6.4-1.2 9.8-1.2 7.2 0 13.9 1.4 20.1 4.1 6.2 2.7 11.6 6.4 16.1 11.1 4.6 4.7 8.1 10.2 10.7 16.4 2.6 6.3 3.8 12.9 3.8 19.9 0 7.1-1.2 13.8-3.7 20-2.5 6.3-6 11.7-10.5 16.4-4.5 4.7-9.9 8.3-16.1 11-6.2 2.7-13 4-20.4 4-4.2 0-8.1-.4-11.7-1.2-3.6-.8-7.1-1.9-10.4-3.4v21.5h18.8v26H572v-26h16.1v-91h-10.6v-25.8zm59.9 23.3c-4 0-7.7 1-11.2 3.1-3.5 2.1-6.4 5-8.8 8.8v27.7c2 3.2 4.8 5.9 8.3 7.9 3.5 2 7.4 3 11.8 3 3.2 0 6.3-.6 9.2-1.9 2.9-1.2 5.4-3 7.6-5.2 2.1-2.2 3.9-4.9 5.1-8 1.3-3.1 1.9-6.4 1.9-10 0-4-.6-7.6-1.9-10.7-1.2-3.2-2.9-5.8-5.1-8-2.2-2.2-4.7-3.9-7.6-5-2.9-1.2-6-1.7-9.3-1.7zm122.9-23.3h46.5v72.3h11.9v26H777v-8.4c-3.4 3-7.3 5.4-11.8 7-4.5 1.6-9.7 2.5-15.6 2.5-5.4 0-10.6-.9-15.4-2.6-4.8-1.7-9-4.3-12.6-7.7-3.6-3.4-6.4-7.8-8.4-13-2.1-5.2-3.1-11.3-3.1-18.3v-31.9h-12.8v-26h43.5v57.9c0 6.6 1.7 11.5 5 14.8 3.4 3.3 7.7 4.9 13.1 4.9 3.8 0 7.2-1.2 10.3-3.5 3.1-2.3 5.3-5.5 6.7-9.5v-38.5h-15.8v-26zm140.7 93.2c-3.5 2-7.1 3.5-10.6 4.4-3.5.9-7.2 1.3-10.8 1.3-7.6 0-14.6-1.3-21-3.9-6.4-2.6-11.9-6.2-16.6-10.8-4.6-4.6-8.3-10-10.9-16.3-2.6-6.3-3.9-13.1-3.9-20.4 0-6.9 1.2-13.4 3.7-19.5s6-11.4 10.5-16 9.9-8.2 16.1-10.9c6.3-2.7 13.1-4 20.4-4.1 4.5.1 8.6.5 12.4 1.4 3.8.9 7.3 2.1 10.6 3.6v-2.1h28.8v94.2c0 8.3-1.4 15.5-4.3 21.5-2.8 6-6.7 11-11.4 15-4.8 4-10.3 6.9-16.7 8.8-6.3 1.9-13 2.9-19.9 2.9-8.6 0-16.6-1.2-23.9-3.5-7.3-2.3-13.8-5.5-19.5-9.5l11.9-21.1c4.4 2.8 9.1 5 14.2 6.6 5.1 1.6 10.8 2.4 17.1 2.4 3.4 0 6.6-.4 9.4-1.1 2.9-.8 5.4-2 7.5-3.8 2.1-1.8 3.8-4.2 5-7.3 1.2-3 1.8-6.9 1.8-11.5v-.3zm-20.5-20.6c4.4 0 8.4-1.1 12-3.4 3.6-2.2 6.4-5.2 8.5-8.9l.2-23.9c-2.2-4-5.1-7.1-8.8-9.5-3.7-2.3-7.8-3.5-12.1-3.6-3.1.1-6.1.7-9.1 1.9s-5.6 2.8-7.7 5c-2.2 2.2-3.9 4.7-5.2 7.6-1.3 2.9-1.9 6.2-1.9 9.8 0 3.8.6 7.2 1.9 10.3 1.3 3.1 3 5.7 5.1 7.9 2.1 2.2 4.7 3.8 7.6 5 2.9 1.2 6.1 1.8 9.5 1.8z"/></svg>