<svg version="1.1" id="Layer_1" xmlns="http://www.w3.org/2000/svg" x="0" y="0" viewBox="0 0 550 550" xml:space="preserve"><style>.st8{fill:#fff}.st10{fill:#4d4d4d}.st12{fill:#323232}.st13{fill:#989898}.st14{fill:#ccc}.st15{fill:#b3b3b3}</style><circle cx="275.7" cy="273.7" r="274.9" fill="#f2f2f2"/><path class="st10" d="M358.5 436.4c-54.3 20-113.9 20-168.2 0-5-1.8-9-7.7-9-12.8v-13.1c0-5.1 4-7.6 9-5.8 54.3 20 113.9 20 168.2 0 5-1.8 9 .7 9 5.8v13.1c0 5.1-4.1 11-9 12.8z"/><path class="st12" d="M358.5 420.4c-54.3 27.8-113.9 27.8-168.2 0-5-2.5-9-10.7-9-17.8v-18.1c0-7.1 4-10.6 9-8 54.3 27.8 113.9 27.8 168.2 0 5-2.5 9 .9 9 8v18.1c0 7.1-4.1 15.3-9 17.8z"/><circle class="st12" cx="274.4" cy="443.2" r="7.7"/><circle class="st13" cx="274.4" cy="442.1" r="6.6"/><circle class="st14" cx="276.4" cy="444.4" r="2.3"/><path class="st15" d="M441.3 300.6c5 68.5-69.1 130-165.9 129.9-96.7.1-170.9-61.4-165.9-129.9 5-68.7 79.5-125.4 166.1-125.5 86.7.1 160.6 56.8 165.7 125.5z"/><path class="st14" d="M275.1 165.5c-91 0-175.5 64.1-159.5 161.7 3.2 9 8.5 32.4 33.8 53.1 7.6 6.2 20.7 11.4 26.9 7.2 15.9-10.8-12.3-41.8 19.9-70.4h-.7c17.5-13.3 42.3-23.9 79.4-23.9 37.1 0 61.9 10.6 79.4 23.9h-.7c32.2 28.6 4.1 59.6 19.9 70.4 6.2 4.2 19.4-1 26.9-7.2 25.3-20.7 30.7-44.1 33.9-53.1 16-97.7-68.2-161.7-159.2-161.7z"/><path d="M353.4 327.3c-15.3-18.8-44.3-37.3-78-37.3h-.4c-33.8 0-62.8 18.5-78 37.3-15.8 19.2-10.1 27.6-10.1 45.9 0 66.6 23.3 47 39 55 16 7.8 32.2 4.8 49.2 4.8h.3c17 0 33.2 3.1 49.2-4.7 15.6-8 39 11.6 39-55-.1-18.4 5.6-26.8-10.2-46z"/><circle class="st15" cx="162.8" cy="298" r="27.9"/><circle class="st15" cx="170" cy="285.5" r="7.2"/><circle cx="165.3" cy="293.3" r="27.9"/><circle class="st8" cx="172.4" cy="280.8" r="7.2"/><circle class="st15" cx="386.8" cy="298" r="27.9"/><circle class="st15" cx="394" cy="285.5" r="7.2"/><circle cx="385.2" cy="293.3" r="27.9"/><circle class="st8" cx="392.4" cy="280.8" r="7.2"/><path class="st15" d="M216.4 190.5s-94.5 16.3-98.3 129.2c-.1 1.7-1.9 2.8-3.4 1.9l-3-1.8-2.3-29.6 4.3-60.4 39.4-29.1 35.4-14.3 27.9 4.1zm117.3 0s94.5 16.3 98.3 129.2c.1 1.7 1.9 2.8 3.4 1.9l3-1.8 2.3-29.6-4.3-60.4-39.4-29.1-35.4-14.3-27.9 4.1z"/><path fill="#333" stroke="#4d4d4d" stroke-width="4.159" stroke-miterlimit="10" d="M275.2 334.6v59.7"/><path d="M216.4 190.5s-111.3 15.4-101.7 125.9c.5 5.6-22.2-23.9-39.8-32.9s-17-38.1-17-38.1-.3-50.7 70.8-65.7c71-14.9 87.7 10.8 87.7 10.8zm117.3 0S445 205.9 435.4 316.4c-.5 5.6 22.2-23.9 39.8-32.9 17.6-9 17-38.1 17-38.1s.3-50.7-70.8-65.7c-71-14.9-87.7 10.8-87.7 10.8z"/><path class="st15" d="M275.2 270.1c-34.6 0-69.6 34-62.3 30.2 13.5-7.1 21.3-19.6 62.3-19.6s48.7 12.5 62.3 19.6c7.3 3.8-27.7-30.2-62.3-30.2z"/><path class="st15" d="M275.2 255.2c-26.3 0-52.8 25.8-47.3 22.9 10.3-5.4 23.5-14.9 47.3-14.9s37 9.5 47.3 14.9c5.5 2.9-21-22.9-47.3-22.9zm-.2-83.7c-29 0-58.4 16.6-52.3 14.7 11.4-3.5 26-9.6 52.3-9.6s40.9 6.1 52.3 9.6c6.1 1.9-23.2-14.7-52.3-14.7z"/><path class="st10" d="M275.7 391.3c-6.4.2-15 4.2-23.3 6.7-7.9 2.7-15.5 3.8-12.5 4.3 10.3.4 21.7-3.5 35.8-3.3 14-.2 25.4 3.7 35.8 3.3 3-.4-4.6-1.5-12.5-4.3-8.3-2.5-17-6.5-23.3-6.7zm25.6-75.9c3.3 7.3-8.1 19.2-26.2 19.2s-29.5-11.9-26.2-19.2c3.2-7.5 14.7-9.9 26.2-10 11.5.1 23 2.5 26.2 10z"/><path d="M281.7 311.4c.8 1.8-2 4.7-6.5 4.7s-7.3-2.9-6.5-4.7c.8-1.8 3.6-2.4 6.5-2.5 2.8 0 5.7.6 6.5 2.5z" fill="gray"/><circle class="st13" cx="274.4" cy="468.3" r="20.6"/><circle class="st14" cx="274.4" cy="468.4" r="18.5"/><path d="M279.8 462.5c1.1 1 1.7 2.4 1.7 4.4s-.6 3.4-1.7 4.4c-1.2.9-2.9 1.4-5.3 1.4h-2.1v4.5h-3.6v-16.1h5.7c2.4 0 4.2.5 5.3 1.4zm-2.6 6.3c.4-.5.6-1.2.6-2.1 0-.9-.3-1.6-.8-2s-1.4-.6-2.6-.6h-2v5.4h2.4c1.2.1 2-.2 2.4-.7z" fill="#656565"/></svg>