<svg version="1.1" id="Layer_1" xmlns="http://www.w3.org/2000/svg" x="0" y="0" viewBox="0 0 550 550" xml:space="preserve"><style>.st3{fill:#c1272d}.st4{fill:#ff931e}.st5{fill:#ffb81e}.st6{fill:#f7bd89}.st8{fill:#fff}</style><circle cx="275" cy="274" r="274.9" fill="#f2f2f2"/><path d="M357.8 436.8c-54.3 20-113.9 20-168.2 0-5-1.8-9-7.7-9-12.8v-13.1c0-5.1 4-7.6 9-5.8 54.3 20 113.9 20 168.2 0 5-1.8 9 .7 9 5.8V424c0 5.1-4 10.9-9 12.8z" fill="#ed1c24"/><path class="st3" d="M357.8 420.7c-54.3 27.8-113.9 27.8-168.2 0-5-2.5-9-10.7-9-17.8v-18.1c0-7.1 4-10.6 9-8 54.3 27.8 113.9 27.8 168.2 0 5-2.5 9 .9 9 8v18.1c0 7.1-4 15.3-9 17.8z"/><circle class="st3" cx="273.7" cy="443.5" r="7.7"/><circle class="st4" cx="273.7" cy="442.4" r="6.6"/><circle class="st5" cx="275.7" cy="444.7" r="2.3"/><path class="st6" d="M440.6 300.9c5 68.5-69.1 130-165.9 129.9-96.7.1-170.9-61.4-165.9-129.9 5-68.7 79.5-125.4 166.1-125.5 86.7.1 160.7 56.8 165.7 125.5z"/><path d="M274.4 165.8c-91 0-175.5 64.1-159.5 161.7 3.2 9 8.5 32.4 33.8 53.1 7.6 6.2 20.7 11.4 26.9 7.2 15.9-10.8-12.3-41.8 19.9-70.4h-.7c17.5-13.3 42.3-23.9 79.4-23.9 37.1 0 61.9 10.6 79.4 23.9h-.7c32.2 28.6 4.1 59.6 19.9 70.4 6.2 4.2 19.4-1 26.9-7.2 25.3-20.7 30.7-44.1 33.9-53.1 16-97.6-68.2-161.7-159.2-161.7z" fill="#fbd5a0"/><path d="M352.7 327.6c-15.3-18.8-44.3-37.3-78-37.3h-.4c-33.8 0-62.8 18.5-78 37.3-15.8 19.2-10.1 27.6-10.1 45.9 0 66.6 23.3 47 39 55 16 7.8 32.2 4.8 49.2 4.8h.3c17 0 33.2 3.1 49.2-4.7 15.6-8 39 11.6 39-55 0-18.4 5.6-26.8-10.2-46z"/><circle class="st6" cx="162.2" cy="298.3" r="27.9"/><circle class="st6" cx="169.3" cy="285.9" r="7.2"/><circle cx="164.6" cy="293.6" r="27.9"/><circle class="st8" cx="171.8" cy="281.2" r="7.2"/><circle class="st6" cx="386.2" cy="298.3" r="27.9"/><circle class="st6" cx="393.3" cy="285.9" r="7.2"/><circle cx="384.5" cy="293.6" r="27.9"/><circle class="st8" cx="391.7" cy="281.2" r="7.2"/><path class="st6" d="M215.7 190.9s-94.5 16.3-98.3 129.2c-.1 1.7-1.9 2.8-3.4 1.9l-3-1.8-2.3-29.6 4.3-60.4 39.4-29.1 35.4-14.3 27.9 4.1zm117.4 0s94.5 16.3 98.3 129.2c.1 1.7 1.9 2.8 3.4 1.9l3-1.8 2.3-29.6-4.3-60.4-39.4-29.2-35.4-14.3-27.9 4.2z"/><path fill="#333" stroke="#4d4d4d" stroke-width="4.159" stroke-miterlimit="10" d="M274.6 334.9v59.8"/><path d="M215.7 190.9S104.4 206.3 114 316.8c.5 5.6-22.2-23.9-39.8-32.9s-17-38.1-17-38.1-.3-50.7 70.8-65.7 87.7 10.8 87.7 10.8zm117.4 0s111.3 15.4 101.7 125.9c-.5 5.6 22.2-23.9 39.8-32.9 17.6-9 17-38.1 17-38.1s.3-50.7-70.8-65.7-87.7 10.8-87.7 10.8z"/><path class="st6" d="M274.5 270.4c-34.6 0-69.6 34-62.3 30.2 13.5-7.1 21.3-19.6 62.3-19.6s48.7 12.5 62.3 19.6c7.3 3.8-27.7-30.2-62.3-30.2z"/><path class="st6" d="M274.5 255.6c-26.3 0-52.8 25.8-47.3 22.9 10.3-5.4 23.5-14.9 47.3-14.9s37 9.5 47.3 14.9c5.6 2.9-21-22.9-47.3-22.9zm-.1-83.8c-29 0-58.4 16.6-52.3 14.7 11.4-3.5 26-9.6 52.3-9.6s40.9 6.1 52.3 9.6c6 1.9-23.3-14.7-52.3-14.7z"/><path d="M275 391.6c-6.4.2-15 4.2-23.3 6.7-7.9 2.7-15.5 3.8-12.5 4.3 10.3.4 21.7-3.5 35.8-3.3 14-.2 25.4 3.7 35.8 3.3 3-.4-4.6-1.5-12.5-4.3-8.3-2.4-16.9-6.5-23.3-6.7zm25.6-75.9c3.3 7.3-8.1 19.2-26.2 19.2s-29.5-11.9-26.2-19.2c3.2-7.5 14.7-9.9 26.2-10 11.5.2 23.1 2.6 26.2 10z" fill="#4d4d4d"/><path d="M281 311.7c.8 1.8-2 4.7-6.5 4.7s-7.3-2.9-6.5-4.7c.8-1.8 3.6-2.4 6.5-2.5 2.9.1 5.7.7 6.5 2.5z" fill="gray"/><circle class="st4" cx="273.7" cy="468.6" r="20.6"/><circle class="st5" cx="273.7" cy="468.7" r="18.5"/><path class="st4" d="M279.2 462.8c1.1 1 1.7 2.4 1.7 4.4s-.6 3.4-1.7 4.4c-1.2.9-2.9 1.4-5.3 1.4h-2.1v4.5h-3.6v-16.1h5.7c2.4 0 4.2.5 5.3 1.4zm-2.7 6.4c.4-.5.6-1.2.6-2.1 0-.9-.3-1.6-.8-2-.6-.4-1.4-.6-2.6-.6h-2v5.4h2.4c1.2 0 2-.3 2.4-.7z"/></svg>