<?xml version="1.0" standalone="no"?>
<!DOCTYPE svg PUBLIC "-//W3C//DTD SVG 20010904//EN"
 "http://www.w3.org/TR/2001/REC-SVG-20010904/DTD/svg10.dtd">
<svg version="1.0" xmlns="http://www.w3.org/2000/svg"
 width="16.000000pt" height="16.000000pt" viewBox="0 0 16.000000 16.000000"
 preserveAspectRatio="xMidYMid meet">

<g transform="translate(0.000000,16.000000) scale(0.100000,-0.100000)"
fill="#000000" stroke="none">
<path d="M59 125 c-3 -5 -9 -23 -13 -38 -4 -15 -11 -25 -16 -22 -6 3 -10 1
-10 -4 0 -6 7 -11 15 -11 8 0 15 5 15 11 0 8 5 8 15 -1 12 -10 18 -10 30 0 10
9 15 9 15 1 0 -6 7 -11 15 -11 8 0 15 5 15 11 0 5 -5 7 -10 4 -6 -4 -13 7 -16
25 -9 41 -24 48 -24 11 0 -41 -18 -40 -22 2 -2 17 -6 28 -9 22z"/>
</g>
</svg>
