<svg version="1.1" id="Layer_1" xmlns="http://www.w3.org/2000/svg" x="0" y="0" viewBox="0 0 256 256" xml:space="preserve"><style>.st3{fill:#ccac8d}.st4{fill:#fff}.st12{fill:#ccc}.st13{fill:#b3b3b3}.st14{fill:#989898}.st15{fill:#323232}.st16{fill:#1e1e1e}.st17{fill:#4c4c4c}.st18{fill:#e6e6e6}</style><path d="M181.4 192.3c-34.3 17.5-71.9 17.5-106.2 0-3.1-1.6-5.7-6.7-5.7-11.2v-11.4c0-4.5 2.5-6.7 5.7-5.1 34.3 17.5 71.9 17.5 106.2 0 3.1-1.6 5.7.6 5.7 5.1v11.4c-.1 4.4-2.6 9.6-5.7 11.2z" fill="#c1272d"/><path class="st12" d="M214.3 93.2c-.5-8.7.5-16.5-3.4-23.2-9.5-16.5-33.4-26-81.9-26h-.5.5c-47 0-73 9.6-82.5 26.1-3.9 6.7-3.3 14.5-3.8 23.2-.4 7-3.5 14.5-2.2 22.5 1.6 10.4 2.3 20.7 3.9 30.4 1.3 7.9 11.8 14.3 12.8 21.8 2.8 20.4 23.3 29.7 71.8 29.7v.2h-.7.6v-.2c49 0 68.6-9.4 71.3-29.8 1-7.5 11.1-14 12.4-21.8 1.6-9.6 2.2-20 3.9-30.4 1.3-8-1.8-15.5-2.2-22.5z"/><path d="M181.4 202.4a153.91 153.91 0 01-106.2 0c-3.1-1.2-5.7-4.9-5.7-8.1v-8.2c0-3.2 2.5-4.8 5.7-3.6 34.3 12.6 71.9 12.6 106.2 0 3.1-1.2 5.7.4 5.7 3.6v8.2c-.1 3.3-2.6 7-5.7 8.1z"/><path class="st13" d="M128.4 99.8c8.7.1 14.7 6 20.3 11 6.6 5.8 18 10 22.6 14.9 4.6 4.9 10.6 10.2 12.9 18 2.3 7.8 2.9 17.8 2.9 20.4 0 2.6 1.5 2 5.4 0 9.4-4.7 19.9-17 19.9-17-1.3 7.9-11.4 14-12.4 21.5-2.8 20.4-22.6 29.4-71.5 29.4h-.3.7"/><path class="st13" d="M160.2 84.8c1.9 6.3 8.2 27.3-4.2 20.2 0 0 5.1 3 8.4 14.3 3.3 11.3 11.6 12.8 11.6 12.8s13.4 2.6 23.4-5.9c8.5-7.2 9.8-20.1 6.3-29.7s-10.1-12.7-19.5-14.7c-9.3-2.1-28.1-3.9-26 3z"/><circle cx="184" cy="107.7" r="17.6"/><circle class="st4" cx="179.5" cy="99.8" r="4.5"/><path class="st12" d="M157.3 106.8s15.9 10.7 24.5 21.4 8.4 12.7 8.4 12.7l-6.1 2.7s-8.8-16.6-19.7-22.8c-10.9-6.3-12.2-11.5-12.2-11.5l5.1-2.5z"/><circle class="st14" cx="128.3" cy="206" r="4.2"/><circle class="st12" cx="129.5" cy="207.4" r="1.5"/><circle class="st14" cx="128.3" cy="212.4" r="2.8"/><circle class="st12" cx="129.1" cy="213.4" r="1"/><path class="st13" d="M129 99.8c-8.7.1-15 6-20.6 11-6.6 5.8-18.1 10-22.7 14.9-4.6 4.9-10.7 10.2-12.9 18-2.3 7.8-2.9 17.8-2.9 20.4 0 2.6.5 2.8-5.5 0-9.5-4.5-19.9-17-19.9-17 1.3 7.9 11.4 14 12.4 21.5C59.6 189 79.5 198 128.4 198h.6"/><path class="st15" d="M175.8 134c-9.6-11.9-25-23-46.4-23h-.2c-21.3 0-36.7 11.2-46.4 23-10 12.1-9.3 17.1-9.3 28.7 0 42.1 14.7 29.4 24.6 34.5 10.1 4.9 20.3 2.8 31.1 2.8h.2c10.7 0 21 2.1 31.1-2.9 9.9-5.1 24.6 7.7 24.6-34.4-.1-11.6.6-16.6-9.3-28.7z"/><path class="st16" d="M128.3 121.8s-1.3 19.3-4.2 23.1l5.2-1.3-1-21.8z"/><path class="st16" d="M129.6 121.8s1.3 19.3 4.2 23.1l-5.2-1.3 1-21.8z"/><path class="st15" d="M112.9 117.3c-2.1-4.6 5.1-12.1 16.5-12.1s18.6 7.5 16.5 12.1c-2 4.7-9.3 6.2-16.5 6.3-7.2-.1-14.5-1.6-16.5-6.3z"/><path d="M129.6 121.8c0-.9 6.9-1 10.4-3.4 0 0-7.4 2.3-9.1 1.5-1.6-.9-1.9-3.2-2.1-3.2s-.5 2.5-1.9 3.2c-1.4.8-9.8-1.5-9.8-1.5s11.2 2.7 11.1 3.4c-.1.7-.1 2.5-.1 4 0 5 .1 17.4.7 18.4 1.2 1.8.7-13.4.7-18.4.2-1.5.1-3.1.1-4z"/><path class="st17" d="M129.8 148.7c3.4 0 9.4 2.3 14.8 6.1-5.3-5.7-11.4-9.8-14.8-9.8-3.6 0-11.2 4.4-16.7 10.8 5.9-4.4 13-7.1 16.7-7.1z"/><path class="st16" d="M128.5 184c-7.7 0-15-2.4-21.8-4.2-1.5-.4-2.9.7-4.3.2-12.5-4-22.8-10.9-29-19.3v2.1c0 42.1 14.7 29.4 24.6 34.5 10.1 4.9 20.3 2.8 31.1 2.8h.2c10.7 0 21 2.1 31.1-2.9 9.9-5.1 24.6 7.6 24.6-34.4 0-1.6.1-3 .2-4.4-5.9 9.3-16.4 16.9-29.6 21.4-1.2.4-4-.6-5.3-.3-7.2 1.9-13.5 4.5-21.8 4.5z"/><path class="st16" d="M109.4 161.4s-5 15-1.6 21.6l-4.6-2.1c0 .1 3.6-15.1 6.2-19.5zm39.8 0s5 15 1.6 21.6l4.6-2.1c-.1.1-3.6-15.1-6.2-19.5z"/><path class="st13" d="M96.7 84.8c-1.9 6.3-8.2 27.3 4.2 20.2 0 0-5.1 3-8.4 14.3S80.8 132 80.8 132s-13.4 2.6-23.4-5.9c-8.5-7.2-9.8-20.1-6.3-29.7s10.1-12.7 19.5-14.7c9.5-2 28.2-3.8 26.1 3.1z"/><path d="M129.3 145.1c5.3 0 22.1 11.5 22.5 25.9v-.7c0-14.7-13.6-26.6-22.5-26.6-8.8 0-22.5 11.9-22.5 26.6v.7c.4-14.4 17.2-25.9 22.5-25.9z"/><ellipse transform="rotate(-14.465 132.923 114.38)" class="st16" cx="132.9" cy="114.4" rx="1.6" ry="3.1"/><ellipse transform="rotate(17.235 124.24 114.366)" class="st16" cx="124.2" cy="114.4" rx="1.6" ry="3.1"/><circle cx="73.9" cy="107.7" r="17.6"/><circle class="st4" cx="78.4" cy="99.8" r="4.5"/><path class="st17" d="M134.6 107.8c0-.1-4.6 2-5.8 2.2-1.3-.2-5.9-2.3-5.8-2.2 0-.1 3.8-.1 5.8.1 1.9-.1 5.8-.1 5.8-.1z"/><path class="st12" d="M99.6 106.8s-15.9 10.7-24.5 21.4-8.4 12.7-8.4 12.7l6.1 2.7s8.8-16.6 19.7-22.8 12.2-11.5 12.2-11.5l-5.1-2.5z"/><path class="st13" d="M65 74.9s-5.3 14.7-17.4 21c0 0 18.7-2.2 17.4-21zm126.1 0s5.3 14.7 17.4 21c-.1 0-18.7-2.2-17.4-21zm-34.5 27.6S145 90 129 89.7c-.1 0 .1 0 0 0-15.5.3-27.6 12.8-27.6 12.8 13.8-9.6 26.6-9.4 27.6-9.3 1.5-.1 13.8-.3 27.6 9.3zm-13.8-26.1s-5.8-8.5-13.8-8.7c-.1 0 .1 0 0 0-7 .2-13.8 8.7-13.8 8.7 6.9-6.6 13.8-6.4 13.8-6.3 1.5-.1 6.9-.2 13.8 6.3zm-69 61.5s-9.4 4.7-16.1 1.9h.3c-7-3.5-9.2-13.6-9.2-13.6s5.6 17.8 25 11.7zm109.7 0s9.4 4.7 16.1 1.9h.4c7-3.5 8.9-13.6 8.9-13.6s-6 17.8-25.4 11.7z"/><path class="st3" d="M128.9 82.6s.1 0 0 0z"/><path class="st13" d="M84.7 73.8c5.2-1.1 13.7-1.3 20.6 1.1 8.7 3 1.7 14 3.4 14.6 1.8.6 4.1-7.6 20.2-6.8s18 7.9 20.2 6.8c2.2-1.1-2.2-20.1 22.1-15.7 0 0-25.4-6.8-24.2 11.6 0 0-14.5-11.3-35-1.1.1-.1 5.3-17.2-27.3-10.5z"/><path class="st3" d="M173.4 73.8c.3.1.6.1.9.2-.1 0-.4-.1-.9-.2zm-.2 0h.2-.2z"/><path class="st13" d="M77.8 49.3S56.2 76.5 52.9 87s-5.5 54-8.4 60.1l-10.1-42.7 18.5-44.6 24.9-10.5zm101.5 0s21.6 27.2 24.9 37.7c3.3 10.5 5.5 54 8.4 60.1l10.1-42.7-18.5-44.6-24.9-10.5z"/><path class="st15" d="M178.2 49.3s23.2 19.4 29.9 41.8 3.9 49.6 9.2 53.1c7.4 4.9 15.8-23.7 18.6-26.8 4.3-4.7 19.1-17 20-19.2 1-2.2-29.6-35.6-43-42.1-16-7.9-36-8.5-34.7-6.8z"/><path class="st16" d="M198.1 61.2s27.4 35 26.9 78.5l10.9-22.4c.1.1-9.5-28.5-37.8-56.1z"/><path class="st15" d="M77.8 49.3S54.6 68.7 47.9 91.1s-3.9 49.6-9.2 53.1c-7.4 4.9-15.8-23.7-18.6-26.8-4.3-4.7-19.1-17-20-19.2-1-2.2 29.6-35.6 43-42.1 16-7.9 36-8.5 34.7-6.8z"/><path class="st16" d="M57.9 61.2s-27.4 35-26.9 78.5l-11-22.3s9.6-28.6 37.9-56.2z"/><path class="st13" d="M43 140.7s1.9 10.9 5.3 14.2 1-2.6 1-2.6-3.3-1.8-2.8-15.6c.6-13.9-3.5 4-3.5 4zm170.8 0s-1.9 10.9-5.3 14.2-1-2.6-1-2.6 3.3-1.8 2.8-15.6 3.5 4 3.5 4z"/><path class="st12" d="M141.4 223.5c1.5-.8 2.7-2.2 3-4.1.6-3.1-1.5-6-4.6-6.6-2.8-.5-5.6 1.2-6.4 3.9-3.8-1.1-7.6-1.8-11.5-2.1.2-2.8-1.8-5.4-4.7-5.9-3.1-.6-6 1.5-6.6 4.6-.3 1.8.3 3.6 1.4 4.9-1.5.8-2.7 2.2-3 4.1-.6 3.1 1.5 6 4.6 6.6 2.8.5 5.4-1.1 6.3-3.7 3.8 1 7.7 1.7 11.6 2.1-.1 2.7 1.9 5.2 4.7 5.7 3.1.6 6-1.5 6.6-4.6.4-1.8-.2-3.6-1.4-4.9z"/><path class="st14" d="M137.3 233.7c-.4 0-.7 0-1.1-.1-2.9-.5-4.9-2.9-5.1-5.7-3.6-.3-7.2-1-10.7-1.9-1.2 2.6-3.9 4.1-6.8 3.6-3.4-.6-5.7-3.9-5.1-7.3.3-1.7 1.3-3.2 2.7-4.1-1-1.4-1.4-3.1-1.1-4.8.3-1.6 1.2-3.1 2.6-4 1.4-1 3-1.3 4.7-1 2.9.5 5 3 5.1 5.9 3.6.3 7.1.9 10.6 1.9 1.1-2.7 4-4.3 6.9-3.8 1.6.3 3.1 1.2 4 2.6 1 1.4 1.3 3 1 4.7-.3 1.7-1.3 3.2-2.7 4.1 1 1.4 1.4 3.1 1.1 4.8-.3 1.6-1.2 3.1-2.6 4-1 .7-2.3 1.1-3.5 1.1zm-17.7-9.2l.5.1c3.8 1 7.6 1.7 11.5 2.1h.5v.5c0 2.5 1.7 4.7 4.2 5.1 1.3.2 2.7-.1 3.8-.8s1.9-1.9 2.1-3.3c.3-1.6-.2-3.2-1.3-4.4l-.5-.6.7-.3c1.5-.7 2.4-2.1 2.7-3.6.2-1.3-.1-2.7-.8-3.8-.8-1.1-1.9-1.9-3.3-2.1-2.5-.5-5 1.1-5.8 3.5l-.2.5-.5-.2c-3.7-1.1-7.6-1.8-11.4-2h-.6v-.6c.1-2.6-1.7-4.8-4.2-5.3-1.3-.2-2.7.1-3.8.8-1.1.8-1.9 1.9-2.1 3.3-.3 1.6.2 3.2 1.3 4.4l.5.6-.7.3c-1.5.7-2.4 2.1-2.7 3.6-.5 2.8 1.4 5.4 4.1 5.9 2.5.4 4.9-1 5.7-3.3l.3-.4z"/><circle class="st18" cx="117.5" cy="212.9" r="2.1"/><circle class="st18" cx="138.4" cy="228.4" r="2.1"/><circle class="st14" cx="126.7" cy="220.9" r="1.3"/><circle class="st14" cx="116.5" cy="219.4" r="1.3"/><circle class="st14" cx="137" cy="223" r="1.3"/><circle class="st16" cx="108.5" cy="132.4" r="1.5"/><circle class="st16" cx="99.3" cy="142.1" r="1.5"/><circle class="st16" cx="96.3" cy="132.4" r="1.5"/><circle class="st16" cx="147.5" cy="132.4" r="1.5"/><circle class="st16" cx="156.7" cy="142.1" r="1.5"/><circle class="st16" cx="159.7" cy="132.4" r="1.5"/></svg>