<svg version="1.1" id="Layer_1" xmlns="http://www.w3.org/2000/svg" x="0" y="0" viewBox="0 0 64 64" xml:space="preserve"><style>.st0{fill:#fff}</style><path class="st0" d="M53.6 24.7c-.1-2.2.1-4.1-.8-5.8-2.4-4.1-8.4-6.5-20.5-6.5v.1-.1c-11.8 0-18.3 2.4-20.6 6.5-1 1.7-.8 3.6-1 5.8-.1 1.7-.9 3.6-.6 5.6.4 2.6.6 5.2 1 7.6.3 2 2.9 3.6 3.2 5.5.7 5.1 5.8 7.4 18 7.4 12.3 0 17.1-2.3 17.8-7.4.3-1.9 2.8-3.5 3.1-5.5.4-2.4.6-5 1-7.6.3-2-.5-3.9-.6-5.6z"/><circle cx="46" cy="28.3" r="4.4"/><circle class="st0" cx="44.9" cy="26.3" r="1.1"/><path class="st0" d="M39.3 28.1c2.3 1.5 4.3 3.3 6.1 5.4 2.2 2.7 2.1 3.2 2.1 3.2l-1.5.6s-2.2-4.1-4.9-5.7C38.4 30 38 28.7 38 28.7l1.3-.6z"/><path d="M43.9 35c-2.8-3.6-7.1-5.7-11.6-5.7h-.1c-4.5 0-8.8 2.1-11.6 5.7-2.5 3-2.3 4.3-2.3 7.2 0 10.5 3.7 7.4 6.1 8.7s5.1.7 7.8.7 5.3.5 7.8-.8 6.2 1.9 6.2-8.6c.1-3 .2-4.2-2.3-7.2z"/><path class="st0" d="M32.4 31.8c0-.2 1.7-.2 2.6-.9 0 0-1.9.6-2.3.4s-.5-.8-.5-.8-.1.6-.5.8c-.8 0-1.7-.1-2.5-.4 1 .2 1.9.5 2.8.9v1c0 1.5 0 3.1.2 4.6.3.5.2-3.3.2-4.6v-1z"/><path class="st0" d="M32.3 37.7c1.3 0 5.5 2.9 5.6 6.5V44c0-3.7-3.4-6.7-5.6-6.7s-5.6 3-5.6 6.7v.2c.1-3.7 4.3-6.5 5.6-6.5z"/><circle cx="18.5" cy="28.3" r="4.4"/><circle class="st0" cx="19.6" cy="26.3" r="1.1"/><path class="st0" d="M24.9 28.1c-2.3 1.5-4.3 3.3-6.1 5.4-2.1 2.7-2.1 3.2-2.1 3.2l1.5.7s2.2-4.1 4.9-5.7c2.7-1.6 3.1-2.9 3.1-2.9l-1.3-.7z"/><path d="M43.3 19.8l.2.1-.2-.1zm0 0z" fill="#ccac8d"/><path d="M44.6 13.7s5.8 4.8 7.5 10.4 1 12.4 2.3 13.3c1.8 1.2 4-5.9 4.7-6.7 1.1-1.2 4.8-4.3 5-4.8S56.6 17 53.2 15.4c-4-2-9-2.1-8.6-1.7zm-25.2 0s-5.8 4.8-7.4 10.4-1 12.4-2.3 13.3c-1.9 1.2-4-5.9-4.7-6.7-1.1-1.2-4.8-4.3-5-4.8S7.4 17 10.8 15.4c4-2 9-2.1 8.6-1.7z"/><circle class="st0" cx="27.1" cy="34.5" r=".4"/><circle class="st0" cx="24.8" cy="36.9" r=".4"/><circle class="st0" cx="24.1" cy="34.5" r=".4"/><circle class="st0" cx="36.9" cy="34.5" r=".4"/><circle class="st0" cx="39.2" cy="36.9" r=".4"/><circle class="st0" cx="39.9" cy="34.5" r=".4"/><path d="M28.2 30.7c-.5-1.2 1.3-3 4.1-3s4.7 1.9 4.1 3-2.3 1.6-4.1 1.6c-1.8 0-3.6-.4-4.1-1.6z"/><ellipse transform="rotate(-14.465 33.23 29.987)" class="st0" cx="33.2" cy="30" rx=".4" ry=".8"/><ellipse transform="rotate(-72.77 31.058 29.975)" class="st0" cx="31.1" cy="30" rx=".8" ry=".4"/></svg>