<svg version="1.1" id="Layer_1" xmlns="http://www.w3.org/2000/svg" x="0" y="0" viewBox="0 0 256 256" xml:space="preserve"><style>.st0{fill:#c1272d}.st1{fill:#efcca3}.st3{fill:#ccac8d}.st4{fill:#fff}.st5{fill:#ff931e}.st6{fill:#ffb81e}.st7{fill:#56332b}.st8{fill:#442823}.st9{fill:#7f4a41}.st10{fill:#331712}.st11{fill:#fc6}</style><path class="st7" d="M-154.5 108.6s46.4 38.8 59.8 83.6 7.9 99.2 18.4 106.2c14.8 9.8 31.6-47.4 37.2-53.6 8.7-9.5 38.1-34 40-38.4 1.9-4.4-59.2-71.1-86.1-84.3-31.9-15.6-71.9-17-69.3-13.5z"/><path class="st0" d="M181 194.2c-34.3 17.5-71.9 17.5-106.2 0-3.1-1.6-5.7-6.7-5.7-11.2v-11.4c0-4.5 2.5-6.7 5.7-5.1 34.3 17.5 71.9 17.5 106.2 0 3.1-1.6 5.7.6 5.7 5.1V183c0 4.4-2.6 9.6-5.7 11.2z"/><path class="st1" d="M214 95.1c-.5-8.7.6-16.5-3.2-23.2-9.5-16.5-33.8-26-81.8-26v.1h-.9.9v-.2c-47 0-73.2 9.6-82.7 26.1-3.9 6.7-3.4 14.5-3.9 23.2-.4 7-3.5 14.5-2.3 22.5 1.6 10.4 2.3 20.7 3.9 30.4 1.3 7.9 12 14.3 13 21.8 2.8 20.4 23 29.7 72 29.7v.4h-1 1v-.4c49 0 68.4-9.4 71.1-29.8 1-7.5 11-14 12.3-21.8 1.6-9.6 2.2-20 3.8-30.4 1.3-7.9-1.8-15.4-2.2-22.4z"/><path d="M181 204.3a153.91 153.91 0 01-106.2 0c-3.1-1.2-5.7-4.9-5.7-8.1V188c0-3.2 2.5-4.8 5.7-3.6 34.3 12.6 71.9 12.6 106.2 0 3.1-1.2 5.7.4 5.7 3.6v8.2c0 3.2-2.6 6.9-5.7 8.1z" fill="#ed1c24"/><circle class="st0" cx="127.9" cy="208.6" r="4.9"/><path class="st3" d="M128.3 101.7c8.7.1 14.6 6 20.2 10.9 6.6 5.8 17.9 9.9 22.5 14.9 4.6 4.9 10.6 10.2 12.9 17.9 2.3 7.8 2.9 17.8 2.9 20.4 0 2.6 1.5 2 5.4 0 9.4-4.7 19.9-17 19.9-17-1.3 7.9-11.4 14.1-12.4 21.6-2.8 20.4-22.6 29.5-71.5 29.5h-.3 1.1"/><path class="st3" d="M159.9 86.6c1.9 6.3 8.2 27.3-4.2 20.2 0 0 5.1 3 8.4 14.3 3.3 11.3 11.6 12.8 11.6 12.8s13.4 2.6 23.4-5.9c8.5-7.2 9.8-20.1 6.3-29.7-3.6-9.7-10.1-12.7-19.5-14.7s-28.1-3.8-26 3z"/><circle cx="183.7" cy="109.6" r="17.6"/><circle class="st4" cx="179.2" cy="101.7" r="4.5"/><path class="st1" d="M157 108.7s15.9 10.7 24.5 21.4 8.4 12.7 8.4 12.7l-6.1 2.7s-8.8-16.6-19.7-22.8c-10.9-6.3-12.2-11.5-12.2-11.5l5.1-2.5z"/><circle class="st5" cx="127.9" cy="207.9" r="4.2"/><circle class="st6" cx="129.2" cy="209.3" r="1.5"/><circle class="st5" cx="127.9" cy="214.3" r="2.8"/><circle class="st6" cx="128.7" cy="215.3" r="1"/><path class="st3" d="M128.8 101.7c-8.7.1-15.1 6-20.7 10.9-6.6 5.8-18.1 9.9-22.7 14.9-4.6 4.9-10.7 10.2-13 17.9-2.3 7.8-2.9 17.8-2.9 20.4 0 2.6.5 2.8-5.5 0-9.5-4.5-19.9-17-19.9-17 1.3 7.9 11.4 14.1 12.4 21.6C59.3 190.9 79.1 200 128 200h1"/><path class="st7" d="M175.4 136c-9.6-11.9-25-23-46.4-23h-.2c-21.3 0-36.7 11.1-46.4 23-10 12.1-9.3 17.1-9.3 28.7 0 42.1 14.7 29.5 24.6 34.5 10.1 4.9 20.3 2.8 31.1 2.8h.2c10.7 0 21 2 31.1-2.9 9.9-5.1 24.6 7.7 24.6-34.4 0-11.6.7-16.6-9.3-28.7z"/><path class="st8" d="M127.9 123.6s-1.3 19.3-4.2 23.1l5.2-1.3-1-21.8z"/><path class="st8" d="M129.3 123.6s1.3 19.3 4.2 23.1l-5.2-1.3 1-21.8z"/><path class="st7" d="M112.6 119.2c-2.1-4.6 5.1-12.1 16.5-12.1s18.6 7.5 16.5 12.1c-2 4.7-9.3 6.2-16.5 6.3-7.3-.1-14.5-1.6-16.5-6.3z"/><path d="M129.2 123.7c0-.9 6.9-1 10.4-3.4 0 0-7.4 2.3-9.1 1.5-1.6-.9-1.9-3.2-2.1-3.2-.1 0-.5 2.5-1.9 3.2-1.4.8-9.8-1.5-9.8-1.5s11.2 2.7 11.1 3.4c-.1.7-.1 2.5-.1 4 0 5 .1 17.4.7 18.4 1.2 1.8.7-13.4.7-18.4.2-1.5.2-3.2.1-4z"/><path class="st9" d="M129.4 150.6c3.4 0 9.4 2.3 14.8 6.1-5.3-5.7-11.4-9.8-14.8-9.8-3.6 0-11.2 4.4-16.7 10.8 5.9-4.4 13-7.1 16.7-7.1z"/><path class="st8" d="M128.2 185.8c-7.7 0-15-2.4-21.8-4.2-1.5-.4-2.9.7-4.3.2-12.5-4-22.8-10.9-29-19.3v2.1c0 42.1 14.7 29.5 24.6 34.6 10.1 4.9 20.3 2.8 31.1 2.8h.2c10.7 0 21 2 31.1-2.9 9.9-5.1 24.6 7.6 24.6-34.5 0-1.6.1-3 .2-4.4-5.9 9.3-16.4 16.9-29.6 21.3-1.2.4-4-.6-5.3-.3-7.2 2.1-13.6 4.6-21.8 4.6z"/><path class="st8" d="M109.1 163.3s-5 15-1.6 21.6l-4.6-2.1s3.5-15.1 6.2-19.5zm39.7 0s5 15 1.6 21.6l4.6-2.1s-3.6-15.1-6.2-19.5z"/><path class="st3" d="M96.4 86.6c-1.9 6.3-8.2 27.3 4.2 20.2 0 0-5.1 3-8.4 14.3s-11.6 12.8-11.6 12.8-13.6 2.6-23.5-5.9c-8.5-7.2-9.8-20.1-6.3-29.7s10.1-12.7 19.5-14.7 28.1-3.8 26.1 3z"/><path d="M128.9 146.9c5.3 0 22.1 11.5 22.5 25.9v-.7c0-14.7-13.6-26.6-22.5-26.6s-22.5 11.9-22.5 26.6v.7c.4-14.3 17.2-25.9 22.5-25.9z"/><ellipse transform="rotate(-14.465 132.565 116.244)" class="st10" cx="132.6" cy="116.2" rx="1.6" ry="3.1"/><ellipse transform="rotate(17.235 123.883 116.23)" class="st10" cx="123.9" cy="116.2" rx="1.6" ry="3.1"/><circle cx="73.5" cy="109.6" r="17.6"/><circle class="st4" cx="78" cy="101.7" r="4.5"/><path class="st9" d="M134.2 109.7c0-.1-4.6 2-5.8 2.2-1.3-.2-5.9-2.3-5.8-2.2 0-.1 3.8-.1 5.8.1 2-.2 5.8-.2 5.8-.1z"/><path class="st1" d="M99.2 108.7s-15.9 10.7-24.5 21.4-8.4 12.7-8.4 12.7l6.1 2.7s8.8-16.6 19.7-22.8c10.9-6.3 12.2-11.5 12.2-11.5l-5.1-2.5z"/><path class="st3" d="M64.6 76.7s-5.3 14.7-17.4 21c0 0 18.7-2.2 17.4-21zm126.1 0s5.3 14.7 17.4 21c0 0-18.7-2.2-17.4-21zm-34.3 27.7s-11.7-12.5-27.7-12.8h.1c-16 .3-27.6 12.8-27.6 12.8 14-9.7 26.8-9.4 27.8-9.4s13.7-.3 27.4 9.4zm-13.8-26.1s-5.9-8.5-13.9-8.7h.3c-7 .2-13.8 8.7-13.8 8.7 6.9-6.6 13.8-6.4 13.8-6.3 1-.1 6.7-.2 13.6 6.3zm-69.1 61.5s-9.4 4.7-16.1 1.9h.7c-7-3.5-9.4-13.6-9.4-13.6s5.4 17.7 24.8 11.7zm109.7 0s9.4 4.7 16.1 1.9h.7c7-3.5 8.7-13.6 8.7-13.6s-6.2 17.7-25.5 11.7zm-54.6-55.3z"/><path class="st3" d="M84.4 75.6c5.2-1.1 13.7-1.3 20.6 1.1 8.7 3 1.7 14 3.4 14.6 1.8.6 4.1-7.6 20.2-6.8 16.1.8 18 7.9 20.2 6.8 2.2-1.1-2.2-20.1 22.1-15.7 0 0-25.4-6.8-24.2 11.6 0 0-14.5-11.3-35-1.1 0 0 5.3-17.2-27.3-10.5zm88.6.1c.3.1.6.1.9.2 0 0-.3-.1-.9-.2zm-.2-.1h.2c0 .1-.1.1-.2 0zM77.4 51.2S55.8 78.4 52.5 88.9s-5.5 54-8.4 60.1L34 106.3l18.5-44.6 24.9-10.5zm101.5 0s21.6 27.2 24.9 37.7c3.3 10.5 5.5 54 8.4 60.1l10.1-42.7-18.5-44.6-24.9-10.5z"/><path class="st7" d="M177.9 51.2s23.2 19.4 29.9 41.8 3.9 49.6 9.2 53.1c7.4 4.9 15.8-23.7 18.6-26.8 4.3-4.7 19.1-17 20-19.2 1-2.2-29.6-35.6-43-42.1-16-7.9-36-8.6-34.7-6.8z"/><path class="st8" d="M197.8 63.1s27.4 35 26.9 78.5l10.9-22.4s-9.6-28.6-37.8-56.1z"/><path class="st7" d="M77.4 51.2S54.2 70.6 47.5 93s-3.9 49.6-9.2 53.1c-7.4 4.9-15.8-23.7-18.6-26.8-4.3-4.7-19.1-17-20-19.2-1-2.2 29.6-35.6 43-42.1 16-7.9 36-8.6 34.7-6.8z"/><path class="st8" d="M57.5 63.1s-27.4 35-26.9 78.5l-10.9-22.4s9.6-28.6 37.8-56.1z"/><path class="st3" d="M42.6 142.5s1.9 10.9 5.3 14.2c3.4 3.4 1-2.6 1-2.6s-3.3-1.8-2.8-15.6c.6-13.8-3.5 4-3.5 4zm170.8 0s-1.9 10.9-5.3 14.2c-3.4 3.4-1-2.6-1-2.6s3.3-1.8 2.8-15.6c-.6-13.8 3.5 4 3.5 4z"/><path class="st6" d="M141 225.4c1.5-.8 2.7-2.2 3-4.1.6-3.1-1.5-6-4.6-6.6-2.8-.5-5.6 1.2-6.4 3.9-3.8-1.1-7.6-1.8-11.5-2.1.2-2.8-1.8-5.4-4.7-5.9-3.1-.6-6 1.5-6.6 4.6-.3 1.8.3 3.6 1.4 4.9-1.5.8-2.7 2.2-3 4.1-.6 3.1 1.5 6 4.6 6.6 2.8.5 5.4-1.1 6.3-3.7 3.8 1 7.7 1.7 11.6 2.1-.1 2.7 1.9 5.2 4.7 5.7 3.1.6 6-1.5 6.6-4.6.4-1.9-.2-3.6-1.4-4.9z"/><path class="st5" d="M136.9 235.5c-.4 0-.7 0-1.1-.1-2.9-.5-4.9-2.9-5.1-5.7-3.6-.3-7.2-1-10.7-1.9-1.2 2.6-3.9 4.1-6.8 3.6-3.4-.6-5.7-3.9-5.1-7.3.3-1.7 1.3-3.2 2.7-4.1-1-1.4-1.4-3.1-1.1-4.8.3-1.6 1.2-3.1 2.6-4 1.4-1 3-1.3 4.7-1 2.9.5 5 3 5.1 5.9 3.6.3 7.1.9 10.6 1.9 1.1-2.7 4-4.3 6.9-3.8 1.6.3 3.1 1.2 4 2.6 1 1.4 1.3 3 1 4.7-.3 1.7-1.3 3.2-2.7 4.1 1 1.4 1.4 3.1 1.1 4.8-.3 1.6-1.2 3.1-2.6 4-1 .7-2.2 1.1-3.5 1.1zm-17.6-9.1l.5.1c3.8 1 7.6 1.7 11.5 2.1h.5v.5c0 2.5 1.7 4.7 4.2 5.1 1.3.2 2.7-.1 3.8-.8 1.1-.8 1.9-1.9 2.1-3.3.3-1.6-.2-3.2-1.3-4.4l-.5-.6.7-.3c1.5-.7 2.4-2.1 2.7-3.6.2-1.3-.1-2.7-.8-3.8s-1.9-1.9-3.3-2.1c-2.5-.5-5 1.1-5.8 3.5l-.2.5-.5-.2c-3.7-1.1-7.6-1.8-11.4-2h-.6v-.6c.1-2.6-1.7-4.8-4.2-5.3-1.3-.2-2.7.1-3.8.8-1.1.8-1.9 1.9-2.1 3.3-.3 1.6.2 3.2 1.3 4.4l.5.6-.7.3c-1.5.7-2.4 2.1-2.7 3.6-.5 2.8 1.4 5.4 4.1 5.9 2.5.4 4.9-1 5.7-3.3l.3-.4z"/><circle class="st11" cx="117.1" cy="214.8" r="2.1"/><circle class="st11" cx="138" cy="230.3" r="2.1"/><circle class="st5" cx="126.4" cy="222.8" r="1.3"/><circle class="st5" cx="116.1" cy="221.3" r="1.3"/><circle class="st5" cx="136.6" cy="224.8" r="1.3"/><circle class="st8" cx="108.2" cy="134.3" r="1.5"/><circle class="st8" cx="99" cy="144" r="1.5"/><circle class="st8" cx="95.9" cy="134.3" r="1.5"/><circle class="st8" cx="147.1" cy="134.3" r="1.5"/><circle class="st8" cx="156.3" cy="144" r="1.5"/><circle class="st8" cx="159.4" cy="134.3" r="1.5"/></svg>