<svg version="1.1" id="Layer_1" xmlns="http://www.w3.org/2000/svg" x="0" y="0" viewBox="0 0 128 128" xml:space="preserve"><style>.st0{fill:#fff}</style><path class="st0" d="M107.2 52.4c-.2-4.4.2-8.3-1.7-11.6-4.8-8.2-16.7-13-41-13v.2-.3C41 27.7 28 32.6 23.3 40.8c-1.9 3.3-1.7 7.2-1.9 11.6-.2 3.5-1.8 7.2-1.1 11.2.8 5.2 1.2 10.4 1.9 15.2.6 3.9 5.9 7.2 6.4 10.9 1.4 10.2 11.7 14.9 35.9 14.9v.1-.1c24.5 0 34.3-4.7 35.7-14.9.5-3.8 5.6-7 6.2-10.9.8-4.8 1.1-10 1.9-15.2.6-4-.9-7.8-1.1-11.2z"/><circle cx="92" cy="59.6" r="8.8"/><circle class="st0" cx="89.8" cy="55.7" r="2.3"/><path class="st0" d="M78.7 59.2s7.9 5.4 12.3 10.7c4.3 5.3 4.2 6.3 4.2 6.3l-3.1 1.4s-4.4-8.3-9.8-11.4-6.1-5.7-6.1-5.7l2.5-1.3z"/><path d="M87.9 72.9c-4.9-6-12.6-11.4-23.2-11.4h-.1c-10.7 0-18.4 5.5-23.2 11.4s-4.6 8.5-4.6 14.3c0 21 7.4 14.8 12.3 17.3s10.2 1.5 15.5 1.5h.1c5.4 0 10.5.9 15.5-1.6s12.3 3.8 12.3-17.2c0-5.8.4-8.3-4.6-14.3z"/><path class="st0" d="M64.8 66.6c0-.4 3.4-.5 5.2-1.7 0 0-3.7 1.2-4.5.7-.8-.4-1-1.6-1-1.6s-.3 1.2-.9 1.6c-.7.4-4.9-.7-4.9-.7s5.6 1.4 5.6 1.7-.1 1.3-.1 2c0 2.5 0 8.7.4 9.2.6.9.4-6.7.4-9.2-.2-.7-.2-1.5-.2-2z"/><path class="st0" d="M64.6 78.3c2.7 0 11.1 5.8 11.2 12.9v-.4c0-7.3-6.8-13.3-11.2-13.3s-11.2 6-11.2 13.3v.4c.2-7.2 8.6-12.9 11.2-12.9z"/><circle cx="36.9" cy="59.6" r="8.8"/><circle class="st0" cx="39.2" cy="55.7" r="2.3"/><path class="st0" d="M49.8 59.2s-7.9 5.4-12.2 10.7c-4.3 5.3-4.2 6.3-4.2 6.3l3.1 1.4s4.4-8.3 9.8-11.4 6.1-5.7 6.1-5.7l-2.6-1.3z"/><path d="M86.7 42.6l.4.1-.4-.1zm-.1 0z" fill="#ccac8d"/><path d="M89.1 30.4s11.6 9.7 14.9 20.9 2 24.8 4.6 26.5c3.7 2.4 7.9-11.8 9.3-13.4 2.2-2.4 9.5-8.5 10-9.6s-14.7-17.8-21.4-21c-8-3.9-18-4.3-17.4-3.4zm-50.2 0s-11.6 9.7-15 20.9-2 24.8-4.6 26.5C15.6 80.3 11.4 66 10 64.4 7.9 62 .5 55.9 0 54.8s14.8-17.8 21.5-21c8-3.9 18-4.3 17.4-3.4z"/><circle class="st0" cx="54.3" cy="71.9" r=".8"/><circle class="st0" cx="49.7" cy="76.8" r=".8"/><circle class="st0" cx="48.1" cy="71.9" r=".8"/><circle class="st0" cx="73.7" cy="71.9" r=".8"/><circle class="st0" cx="78.3" cy="76.8" r=".8"/><circle class="st0" cx="79.9" cy="71.9" r=".8"/><path d="M56.5 64.4c-1-2.3 2.6-6 8.3-6s9.3 3.8 8.3 6c-1 2.3-4.7 3.1-8.3 3.2s-7.3-.9-8.3-3.2z"/><ellipse transform="rotate(-14.465 66.466 62.935)" class="st0" cx="66.5" cy="62.9" rx=".8" ry="1.5"/><ellipse transform="rotate(-72.77 62.117 62.93)" class="st0" cx="62.1" cy="62.9" rx="1.5" ry=".8"/></svg>