<svg version="1.1" id="Layer_1" xmlns="http://www.w3.org/2000/svg" x="0" y="0" viewBox="0 0 512 512" xml:space="preserve"><style>.st0{fill:#fff}</style><path d="M362.7 405.6c-68.5 25.3-143.8 25.3-212.4 0-6.3-2.3-11.3-9.7-11.3-16.1V373c0-6.5 5.1-9.6 11.3-7.3 68.5 25.3 143.8 25.3 212.4 0 6.3-2.3 11.3.8 11.3 7.3v16.5c0 6.4-5 13.8-11.3 16.1z"/><path class="st0" d="M428.7 187.3c-1-17.4.9-33.1-6.8-46.5-19-33-66.9-52-163.9-52v1-1c-94 0-145.9 19.3-165 52.3-7.7 13.4-6.6 28.9-7.6 46.4-.8 13.9-7 28.9-4.5 45 3.3 20.9 4.7 41.5 7.8 60.8 2.5 15.7 23.6 28.7 25.6 43.7 5.5 40.8 46.7 59.5 143.6 59.5v.4-.4c98 0 137.1-18.7 142.6-59.5 2-15 22.3-28 24.8-43.7 3.1-19.3 4.5-40 7.7-60.8 2.6-16.2-3.5-31.3-4.3-45.2z"/><circle cx="368.1" cy="216.2" r="35.2"/><circle class="st0" cx="359.1" cy="200.5" r="9"/><path class="st0" d="M314.7 214.5s31.8 21.4 49 42.8 16.9 25.4 16.9 25.4l-12.2 5.4s-17.5-33.1-39.3-45.7-24.5-23-24.5-23l10.1-4.9z"/><circle cx="256.5" cy="425.6" r="5.6"/><path d="M351.5 269.4c-19.3-23.8-50.1-45.6-92.7-45.6h-.4c-42.6 0-73.4 21.8-92.7 45.6-19.9 24.2-18.6 34-18.6 57.3 0 84.1 29.5 59.2 49.2 69.3 20.1 9.9 40.6 5.9 62.1 5.9h.4c21.5 0 42 3.7 62.1-6.2 19.7-10.1 49.2 15.3 49.2-68.8 0-23.4 1.3-33.3-18.6-57.5z"/><path class="st0" d="M259.2 244.4c-.1-1.7 13.7-1.9 20.8-6.8 0 0-14.9 4.7-18.1 2.9s-3.9-6.5-4.2-6.5-1 5-3.7 6.5-19.6-2.9-19.6-2.9 22.4 5.4 22.3 6.8-.2 5.1-.2 7.9c0 10 .2 34.9 1.5 36.8 2.5 3.7 1.5-26.8 1.5-36.8-.1-2.9-.2-6.2-.3-7.9z"/><path class="st0" d="M258.6 290.9c10.6 0 44.3 23.1 44.9 51.8 0-.5.1-1 .1-1.4 0-29.4-27.3-53.2-45-53.2s-45 23.8-45 53.2c0 .5 0 1 .1 1.4.6-28.7 34.2-51.8 44.9-51.8z"/><circle cx="147.8" cy="216.2" r="35.2"/><circle class="st0" cx="156.8" cy="200.5" r="9"/><path class="st0" d="M199.2 214.5s-31.8 21.4-49 42.8-16.9 25.4-16.9 25.4l12.3 5.4s17.5-33.1 39.3-45.7 24.5-23 24.5-23l-10.2-4.9z"/><path d="M257.9 166.1s.1 0 0 0zm88.8-17.7c.6.1 1.2.3 1.8.4 0 .1-.6-.1-1.8-.4zm-.3 0l.3.1-.3-.1z" fill="#ccac8d"/><path d="M356.5 99.4s46.4 38.8 59.8 83.6 7.9 99.2 18.4 106.2c14.8 9.8 31.6-47.4 37.2-53.6 8.7-9.5 38.1-34 40-38.4 1.9-4.4-59.2-71.1-86.1-84.3-31.9-15.6-71.9-17-69.3-13.5zm-201 0s-46.4 38.8-59.8 83.6-7.9 99.2-18.4 106.2c-14.8 9.8-31.6-47.4-37.2-53.6-8.7-9.5-38.1-34-40-38.4s59.2-71.1 86.1-84.3c31.9-15.6 71.9-17 69.3-13.5zm127.3 348.5c5.6-2.8 7.9-9.6 5-15.2s-9.6-7.9-15.2-5c-2.8 1.4-4.8 3.8-5.7 6.8-7.5-2.2-15.3-3.5-23.1-4.1.3-6.3-4.4-11.6-10.7-11.9s-11.6 4.4-11.9 10.7c-.2 3.1.9 6.1 3.1 8.4-5.6 2.8-7.8 9.6-5 15.2s9.6 7.8 15.2 5c2.6-1.3 4.6-3.6 5.6-6.4 7.6 2.1 15.4 3.5 23.2 4.1-.1 6.3 4.9 11.4 11.1 11.5 6.3.1 11.4-4.9 11.5-11.1 0-3-1.1-5.8-3.1-8z"/><path d="M274.5 468.1c-.7 0-1.5-.1-2.2-.2-5.7-1-9.9-5.7-10.3-11.4-7.2-.7-14.3-2-21.4-3.8-2.8 6.3-10.2 9.1-16.5 6.3-6.3-2.8-9.1-10.2-6.3-16.5 1-2.2 2.6-4 4.6-5.4-4.1-5.5-2.9-13.4 2.6-17.5s13.4-2.9 17.5 2.6c1.5 2 2.3 4.5 2.4 7 7.2.6 14.3 1.9 21.2 3.8 2.6-6.4 9.9-9.4 16.3-6.8 6.4 2.6 9.4 9.9 6.8 16.3-1 2.3-2.6 4.3-4.7 5.7 4.1 5.6 2.9 13.4-2.6 17.5-2.1 1.6-4.7 2.4-7.4 2.4zm-35.3-18.2l1 .3c7.5 2.1 15.2 3.4 23 4.1l1.1.1v1.1c-.1 5.6 4.4 10.3 10 10.4s10.3-4.4 10.4-10c.1-2.6-.9-5.2-2.7-7.1l-1.1-1.1 1.4-.7c5-2.5 7.1-8.6 4.6-13.6s-8.6-7.1-13.6-4.6c-2.5 1.2-4.4 3.5-5.2 6.1l-.3 1.1-1.1-.3c-7.5-2.1-15.1-3.5-22.9-4.1l-1.1-.1.1-1.1c.3-5.6-4-10.4-9.6-10.7-5.6-.3-10.4 4-10.7 9.6-.2 2.8.8 5.5 2.7 7.5l1 1.1-1.4.7c-5 2.5-7.1 8.6-4.5 13.6 2.5 5 8.6 7.1 13.6 4.5 2.4-1.2 4.2-3.3 5.1-5.8l.2-1z"/><circle transform="rotate(-80.781 253.488 442.656)" class="st0" cx="253.5" cy="442.7" r="2.6"/><circle class="st0" cx="233" cy="439.6" r="2.6"/><circle class="st0" cx="274" cy="446.8" r="2.6"/><circle class="st0" cx="217.1" cy="265.6" r="3.1"/><circle class="st0" cx="198.7" cy="285" r="3.1"/><circle class="st0" cx="192.5" cy="265.6" r="3.1"/><circle class="st0" cx="294.9" cy="265.6" r="3.1"/><circle class="st0" cx="313.3" cy="285" r="3.1"/><circle class="st0" cx="319.5" cy="265.6" r="3.1"/><path d="M225.8 235.4c-4.1-9.2 10.3-24.2 33.1-24.2s37.2 15 33.1 24.2c-4 9.4-18.6 12.5-33.1 12.7-14.5-.3-29-3.3-33.1-12.7z"/><ellipse transform="rotate(-14.465 265.862 229.56)" class="st0" cx="265.9" cy="229.5" rx="3.3" ry="6.2"/><ellipse transform="rotate(-72.77 248.484 229.523)" class="st0" cx="248.5" cy="229.5" rx="6.2" ry="3.3"/></svg>