<svg version="1.1" id="Layer_1" xmlns="http://www.w3.org/2000/svg" x="0" y="0" viewBox="0 0 128 128" xml:space="preserve"><style>.st4{fill:#fff}.st12{fill:#ccc}.st13{fill:#b3b3b3}.st15{fill:#323232}.st16{fill:#1e1e1e}.st17{fill:#4c4c4c}</style><path class="st12" d="M107.2 53.7c-.2-4.4 0-8.3-2-11.6-4.8-8.2-16.2-13-41.2-13V29v.1c-23 0-36.2 4.8-41 13.1-1.9 3.4-1.5 7.2-1.8 11.6-.2 3.4-1.7 7.2-1 11.2.8 5.2 1.2 10.4 2 15.2.6 3.9 5.7 7.2 6.2 10.9C29.7 101.3 40 106 64 106h.3-.3c25 0 34.5-4.7 35.9-14.9.5-3.8 5.7-7 6.3-10.9.8-4.8 1.2-10 2-15.2.6-4-.8-7.8-1-11.3z"/><path class="st13" d="M64 56.9c4.3.1 7.5 3 10.3 5.5 3.3 2.9 9 5 11.3 7.5 2.3 2.5 5.3 5.1 6.5 9 1.1 3.9 1.5 8.9 1.5 10.2 0 1.3.8 1 2.7 0 4.7-2.3 9.9-8.5 9.9-8.5-.6 3.9-5.7 7-6.2 10.7-1.4 10.2-11.3 14.7-35.7 14.7H64"/><path class="st13" d="M80.1 49.5c.9 3.1 4.1 13.6-2.1 10.1 0 0 2.6 1.5 4.2 7.2 1.7 5.7 5.8 6.4 5.8 6.4s6.7 1.3 11.7-3c4.2-3.6 4.9-10 3.1-14.9s-5-6.3-9.7-7.3c-4.7-1-14-1.9-13 1.5z"/><circle cx="92" cy="61" r="8.8"/><circle class="st4" cx="89.8" cy="57" r="2.3"/><path class="st12" d="M78.7 60.5s7.9 5.4 12.2 10.7 4.2 6.3 4.2 6.3L92 78.9s-4.4-8.3-9.8-11.4c-5.5-3.1-6.1-5.7-6.1-5.7l2.6-1.3z"/><path class="st13" d="M64.3 56.9c-4.3.1-7.4 3-10.2 5.5-3.3 2.9-9 5-11.3 7.5-2.3 2.5-5.3 5.1-6.4 9-1.1 3.9-1.5 8.9-1.5 10.2 0 1.3.2 1.4-2.7 0-4.7-2.2-9.9-8.5-9.9-8.5.6 3.9 5.7 7 6.2 10.7 1.4 10.2 11.3 14.7 35.8 14.7h.1-.4"/><path class="st15" d="M87.9 74.3C83.1 68.4 75.4 63 64.7 63h-.1c-10.7 0-18.4 5.4-23.2 11.3-5 6.1-4.6 8.5-4.6 14.3 0 21 7.4 14.6 12.3 17.1 5 2.5 10.2 1.3 15.5 1.3h.1c5.4 0 10.5 1.1 15.5-1.4 4.9-2.5 12.3 4 12.3-17.1 0-5.8.4-8.1-4.6-14.2z"/><path class="st16" d="M64.2 68s-.7 9.7-2.1 11.6l2.6-.6-.5-11z"/><path class="st16" d="M64.8 68s.7 9.7 2.1 11.6l-2.6-.6.5-11z"/><path class="st15" d="M56.5 65.8c-1-2.3 2.6-6 8.3-6.1 5.7 0 9.3 3.7 8.3 6.1-1 2.4-4.6 3.1-8.3 3.2-3.7-.1-7.3-.9-8.3-3.2z"/><path d="M64.8 68c0-.4 3.4-.5 5.2-1.7 0 0-3.7 1.2-4.5.7-.8-.4-1-1.6-1-1.6s-.3 1.2-.9 1.6c-.7.4-4.9-.7-4.9-.7s5.6 1.4 5.6 1.7c0 .3-.1 1.3-.1 2 0 2.5 0 8.7.4 9.2.6.9.4-6.7.4-9.2-.2-.7-.2-1.6-.2-2z"/><path class="st17" d="M64.9 81.5c1.7 0 4.7 1.2 7.4 3.1-2.6-2.9-5.7-4.9-7.4-4.9-1.8 0-5.6 2.2-8.3 5.4 2.9-2.3 6.4-3.6 8.3-3.6z"/><path class="st16" d="M64.3 99.1c-3.8 0-7.5-1.2-10.9-2.1-.7-.2-1.4.3-2.1.1-6.3-2-11.4-5.4-14.5-9.7v1c0 21 7.4 14.7 12.3 17.2 5 2.5 10.2 1.3 15.5 1.3h.1c5.4 0 10.5 1.1 15.5-1.4 4.9-2.5 12.3 3.8 12.3-17.2 0-.8 0-1.5.1-2.2-2.9 4.7-8.2 8.5-14.8 10.7-.6.2-2-.3-2.6-.1-3.6 1.1-6.8 2.4-10.9 2.4z"/><path class="st16" d="M54.7 87.8s-2.5 7.5-.8 10.8l-2.3-1s1.8-7.6 3.1-9.8zm19.9 0s2.5 7.5.8 10.8l2.3-1s-1.8-7.6-3.1-9.8z"/><path class="st13" d="M48.4 49.5c-.9 3.1-4.1 13.6 2.1 10.1 0 0-2.6 1.5-4.2 7.2s-5.8 6.4-5.8 6.4-6.7 1.3-11.7-3c-4.2-3.6-4.9-10-3.1-14.9s5-6.3 9.7-7.3c4.6-1 14-1.9 13 1.5z"/><path d="M64.6 79.6c2.7 0 11.1 5.8 11.2 12.9v-.4c0-7.4-6.8-13.3-11.2-13.3-4.4 0-11.2 6-11.2 13.3v.4c.2-7.1 8.6-12.9 11.2-12.9z"/><ellipse transform="rotate(-14.465 66.46 64.306)" class="st16" cx="66.5" cy="64.3" rx=".8" ry="1.5"/><ellipse transform="rotate(17.235 62.12 64.3)" class="st16" cx="62.1" cy="64.3" rx=".8" ry="1.5"/><circle cx="36.9" cy="61" r="8.8"/><circle class="st4" cx="39.2" cy="57" r="2.3"/><path class="st17" d="M67.3 61c0-.1-2.3 1-2.9 1.1-.7-.1-3-1.1-3-1.1h5.9z"/><path class="st12" d="M49.8 60.5s-7.9 5.4-12.2 10.7-4.2 6.3-4.2 6.3l3.1 1.4s4.4-8.3 9.8-11.4c5.5-3.1 6.1-5.7 6.1-5.7l-2.6-1.3z"/><path class="st13" d="M32.5 44.6s-2.7 7.4-8.7 10.5c0 0 9.3-1.1 8.7-10.5zm63 0s2.7 7.4 8.7 10.5c0 0-9.3-1.1-8.7-10.5zM78.1 58.4s-5.7-6.2-13.7-6.4h.1-.4c-7 .2-13.8 6.4-13.8 6.4 6.9-4.8 13.8-4.7 13.8-4.7.9 0 7.1-.1 14 4.7zm-7-13.1s-2.8-4.2-6.8-4.3H64c-3 .1-6.9 4.3-6.9 4.3 3.4-3.3 6.9-3.2 6.9-3.2 1 0 3.7 0 7.1 3.2zM36.9 76.1s-4.7 2.3-8.1.9c0 0 .1 0 0 0h.1c-3.5-1.7-4.6-6.8-4.6-6.8s2.9 8.9 12.6 5.9zm54.9 0s4.7 2.3 8.1.9h.2c3.5-1.7 4.4-6.8 4.4-6.8s-3.1 8.9-12.7 5.9z"/><path class="st13" d="M42.4 44c2.6-.5 6.9-.6 10.3.5 4.3 1.5.8 7 1.7 7.3.9.3 2.1-3.8 10.1-3.4s9 4 10.1 3.4c1.1-.5-1.1-10 11-7.8 0 0-12.7-3.4-12.1 5.8 0 0-7.3-5.6-17.5-.6 0 0 2.7-8.5-13.6-5.2z"/><path d="M86.7 44c.2 0 .3.1.4.1 0 0-.1 0-.4-.1zm-.1 0s.1 0 0 0c.1 0 0 0 0 0z" fill="#ccac8d"/><path class="st13" d="M38.9 31.8S28.1 45.4 26.5 50.6s-2.8 27-4.2 30.1l-5-21.4L26.4 37l12.5-5.2zm50.7 0s10.8 13.6 12.4 18.8c1.6 5.3 2.8 27 4.2 30.1l5-21.4-9.1-22.3-12.5-5.2z"/><path class="st15" d="M89.1 31.8s11.6 9.7 15 20.9 2 24.8 4.6 26.5c3.7 2.4 7.9-11.9 9.3-13.4 2.2-2.4 9.5-8.5 10-9.6.5-1.1-14.8-17.8-21.5-21.1-8-3.9-18-4.2-17.4-3.3z"/><path class="st16" d="M99.1 37.7s13.7 17.5 13.5 39.3l5.5-11.2c-.1 0-4.9-14.3-19-28.1z"/><path class="st15" d="M38.9 31.8s-11.6 9.7-15 20.9-2 24.8-4.6 26.5c-3.7 2.4-7.9-11.9-9.3-13.4-2.2-2.4-9.5-8.5-10-9.6-.5-1.1 14.8-17.8 21.5-21.1 8-3.9 18-4.2 17.4-3.3z"/><path class="st16" d="M28.9 37.7S15.2 55.2 15.4 77L10 65.8s4.8-14.3 18.9-28.1z"/><path class="st13" d="M21.5 77.4s1 5.4 2.6 7.1c1.7 1.7.5-1.3.5-1.3s-1.7-.9-1.4-7.8c.4-6.9-1.7 2-1.7 2zm85.4 0s-1 5.4-2.6 7.1c-1.7 1.7-.5-1.3-.5-1.3s1.7-.9 1.4-7.8 1.7 2 1.7 2z"/><circle class="st16" cx="54.3" cy="73.3" r=".8"/><circle class="st16" cx="49.7" cy="78.2" r=".8"/><circle class="st16" cx="48.1" cy="73.3" r=".8"/><circle class="st16" cx="73.7" cy="73.3" r=".8"/><circle class="st16" cx="78.3" cy="78.2" r=".8"/><circle class="st16" cx="79.9" cy="73.3" r=".8"/></svg>