<svg version="1.1" id="Layer_1" xmlns="http://www.w3.org/2000/svg" x="0" y="0" viewBox="0 0 64 65" xml:space="preserve"><style>.st4{fill:#fff}.st12{fill:#ccc}.st13{fill:#b3b3b3}.st15{fill:#323232}.st16{fill:#1e1e1e}.st17{fill:#4c4c4c}</style><path class="st15" d="M-38.9 31.8s11.6 9.7 15 20.9 2 24.8 4.6 26.5c3.7 2.4 7.9-11.9 9.3-13.4 2.2-2.4 9.5-8.5 10-9.6.5-1.1-14.8-17.8-21.5-21.1-8-3.9-18-4.2-17.4-3.3z"/><path class="st12" d="M53.6 25.9c-.1-2.2 0-4.1-1-5.8-2.4-4.1-8.1-6.5-20.6-6.5v.4-.4c-11.5 0-18.1 2.4-20.5 6.5-1 1.7-.8 3.6-.9 5.8-.1 1.7-.8 3.6-.5 5.6.4 2.6.6 5.2 1 7.6.3 2 2.8 3.6 3.1 5.5C14.9 49.7 20 52 32 52h.2-.2c12.5 0 17.3-2.3 18-7.4.3-1.9 2.8-3.5 3.2-5.5.4-2.4.6-5 1-7.6.2-1.9-.5-3.8-.6-5.6z"/><path class="st13" d="M32 27.5c2.2 0 3.7 1.5 5.1 2.8 1.6 1.4 4.5 2.5 5.7 3.7 1.1 1.2 2.7 2.6 3.2 4.5.6 1.9.7 4.5.7 5.1 0 .6.4.5 1.4 0 2.3-1.2 5-4.2 5-4.2-.3 2-2.8 3.4-3.1 5.3-.7 5.1-5.6 7.3-17.9 7.3H32"/><path class="st13" d="M40.1 23.8c.5 1.6 2 6.8-1 5 0 0 1.3.8 2.1 3.6s2.9 3.2 2.9 3.2 3.3.6 5.8-1.5c2.1-1.8 2.5-5 1.6-7.4S49 23.5 46.6 23c-2.4-.4-7.1-.9-6.5.8z"/><circle cx="46" cy="29.6" r="4.4"/><circle class="st4" cx="44.9" cy="27.6" r="1.1"/><path class="st12" d="M39.3 29.3s4 2.7 6.1 5.3c2.2 2.7 2.1 3.2 2.1 3.2l-1.5.7s-2.2-4.1-4.9-5.7c-2.7-1.6-3.1-2.9-3.1-2.9l1.3-.6z"/><path class="st13" d="M32.1 27.5c-2.2 0-3.7 1.5-5.1 2.8-1.6 1.4-4.5 2.5-5.6 3.7-1.1 1.2-2.7 2.6-3.2 4.5-.6 1.9-.7 4.5-.7 5.1 0 .6.1.7-1.4 0-2.4-1.1-5-4.2-5-4.2.3 2 2.8 3.4 3.1 5.3.7 5.1 5.6 7.3 17.9 7.3H32"/><path class="st15" d="M43.9 36.4c-2.4-3-6.3-5.4-11.6-5.4s-9.2 2.5-11.6 5.4c-2.5 3-2.3 4.1-2.3 7 0 10.5 3.7 7.5 6.2 8.7 2.5 1.2 5.1.8 7.8.8s5.2.3 7.8-.9c2.5-1.3 6.2 2 6.2-8.5-.1-2.8 0-4-2.5-7.1z"/><path class="st16" d="M32.1 33.1s-.3 4.8-1.1 5.8l1.3-.3-.2-5.5z"/><path class="st16" d="M32.4 33.1s.3 4.8 1.1 5.8l-1.3-.3.2-5.5z"/><path class="st15" d="M28.2 32c-.5-1.2 1.3-3 4.1-3 2.9 0 4.7 1.9 4.1 3-.5 1.2-2.3 1.6-4.1 1.6-1.7-.1-3.6-.5-4.1-1.6z"/><path d="M32.4 33.1c0-.2 1.7-.2 2.6-.8 0 0-1.9.6-2.3.4-.4-.2-.5-.8-.5-.8s-.1.6-.5.8c-.3.2-2.5-.4-2.5-.4s2.8.7 2.8.8v1c0 1.3 0 4.4.2 4.6.3.5.2-3.3.2-4.6v-1z"/><path class="st17" d="M32.5 39.8c.8 0 2.4.6 3.7 1.5-1.3-1.4-2.9-2.4-3.7-2.4-.9 0-2.8 1.1-4.2 2.7 1.4-1.1 3.2-1.8 4.2-1.8z"/><path class="st16" d="M32.1 48.6c-1.9 0-3.7-.6-5.4-1-.4-.1-.7.2-1.1.1-3.1-1-5.7-2.7-7.3-4.8v.5c0 10.5 3.7 7.5 6.2 8.8 2.5 1.2 5.1.9 7.8.9s5.2.3 7.8-.9c2.5-1.3 6.2 1.8 6.2-8.7v-1.2c-1.5 2.3-4.1 4.2-7.4 5.3-.3.1-1-.2-1.3-.1-1.8.5-3.4 1.1-5.5 1.1z"/><path class="st16" d="M27.4 43s-1.3 3.7-.4 5.4l-1.1-.5c-.1 0 .8-3.8 1.5-4.9zm9.9 0s1.3 3.7.4 5.4l1.1-.5s-.9-3.8-1.5-4.9z"/><path class="st13" d="M24.2 23.8c-.5 1.6-2 6.8 1 5 0 0-1.3.8-2.1 3.6s-2.9 3.2-2.9 3.2-3.3.6-5.8-1.5c-2.1-1.8-2.5-5-1.6-7.4s2.5-3.2 4.9-3.7 7-.9 6.5.8z"/><path d="M32.3 38.9c1.3 0 5.5 2.9 5.6 6.5v-.2c0-3.7-3.4-6.7-5.6-6.7-2.2 0-5.6 3-5.6 6.7v.2c.1-3.6 4.3-6.5 5.6-6.5z"/><ellipse transform="rotate(-14.465 33.23 31.226)" class="st16" cx="33.2" cy="31.2" rx=".4" ry=".8"/><ellipse transform="rotate(17.235 31.06 31.223)" class="st16" cx="31.1" cy="31.2" rx=".4" ry=".8"/><circle cx="18.5" cy="29.6" r="4.4"/><circle class="st4" cx="19.6" cy="27.6" r="1.1"/><path class="st17" d="M33.6 29.6s-1.1.5-1.5.5c-.3 0-1.5-.6-1.5-.5h3z"/><path class="st12" d="M24.9 29.3s-4 2.7-6.1 5.3c-2.2 2.7-2.1 3.2-2.1 3.2l1.5.7s2.2-4.1 4.9-5.7 3.1-2.9 3.1-2.9l-1.3-.6z"/><path class="st13" d="M16.2 21.3s-1.3 3.7-4.3 5.3c0 0 4.7-.5 4.3-5.3zm31.6 0s1.3 3.7 4.3 5.3c0 0-4.7-.5-4.3-5.3zm-8.8 7s-2.8-3.1-6.8-3.2H32c-3.5.1-6.9 3.2-6.9 3.2 3.4-2.4 6.9-2.4 6.9-2.3.5-.1 3.6-.2 7 2.3zm-3.4-6.6s-1.4-2.1-3.4-2.2H32c-1.5.1-3.5 2.2-3.5 2.2 1.7-1.6 3.5-1.6 3.5-1.6.5 0 1.9 0 3.6 1.6zM18.5 37.1s-2.4 1.2-4 .5h-.4c-1-.9-2-3.4-2-3.4s1.5 4.4 6.4 2.9zm27.4 0s2.4 1.2 4 .5h.1c1.8-.9 2.2-3.4 2.2-3.4s-1.5 4.4-6.3 2.9z"/><path class="st13" d="M21.2 21.1c1.3-.3 3.4-.3 5.1.3 2.2.8.4 3.5.9 3.7.4.1 1-1.9 5.1-1.7 4 .2 4.5 2 5.1 1.7s-.5-5 5.5-3.9c0 0-6.3-1.7-6.1 2.9 0 0-3.6-2.8-8.7-.3-.1-.1 1.2-4.4-6.9-2.7z"/><path d="M43.3 21.1c.1 0 .2 0 .2.1.1-.1 0-.1-.2-.1zm0 0z" fill="#ccac8d"/><path class="st13" d="M19.4 15s-5.4 6.8-6.2 9.4-1.4 13.5-2.1 15L8.6 28.7l4.6-11.1 6.2-2.6zm25.4 0s5.4 6.8 6.2 9.4c.8 2.6 1.4 13.5 2.1 15l2.5-10.7L51 17.6 44.8 15z"/><path class="st15" d="M44.6 15s5.8 4.8 7.5 10.4 1 12.4 2.3 13.3c1.8 1.2 4-5.9 4.7-6.7 1.1-1.2 4.8-4.3 5-4.8.2-.6-7.4-8.9-10.8-10.5-4.1-2-9.1-2.2-8.7-1.7z"/><path class="st16" d="M49.5 17.9s6.9 8.7 6.7 19.6L59 32s-2.4-7.2-9.5-14.1z"/><path class="st15" d="M19.4 15s-5.8 4.8-7.5 10.4-1 12.4-2.3 13.3c-1.8 1.2-4-5.9-4.7-6.7-1.1-1.2-4.8-4.3-5-4.8-.2-.6 7.4-8.9 10.8-10.5 4.1-2 9.1-2.2 8.7-1.7z"/><path class="st16" d="M14.5 17.9s-6.9 8.7-6.7 19.6L5 32s2.4-7.2 9.5-14.1z"/><path class="st13" d="M10.8 37.8s.5 2.7 1.3 3.6.3-.7.3-.7-.8-.4-.7-3.9c.1-3.5-.9 1-.9 1zm42.6 0s-.5 2.7-1.3 3.6-.3-.7-.3-.7.8-.4.7-3.9.9 1 .9 1z"/><circle class="st16" cx="27.1" cy="35.7" r=".4"/><circle class="st16" cx="24.8" cy="38.2" r=".4"/><circle class="st16" cx="24.1" cy="35.7" r=".4"/><circle class="st16" cx="36.9" cy="35.7" r=".4"/><circle class="st16" cx="39.2" cy="38.2" r=".4"/><circle class="st16" cx="39.9" cy="35.7" r=".4"/></svg>